<?xml version="1.0" encoding="UTF-8"?>
<svg version="1.1" xmlns="http://www.w3.org/2000/svg" width="573" height="435">
<path d="M0 0 C14.12839401 10.99566641 23.51869798 25.01058882 26.34375 42.80078125 C28.64614803 66.59222752 21.82124438 85.89893868 11.66015625 107.0703125 C12.3871875 106.45285156 13.11421875 105.83539063 13.86328125 105.19921875 C16.41143372 103.25963342 18.44334742 102.1276374 21.41015625 101.0078125 C22.27125 100.67910156 23.13234375 100.35039062 24.01953125 100.01171875 C27.2709447 98.852561 30.54472338 97.78392605 33.84765625 96.78125 C35.86955914 96.12762592 35.86955914 96.12762592 37.66015625 94.0703125 C40.40355184 93.92876788 43.03443187 93.90860935 45.7734375 93.98828125 C46.5800029 94.00619217 47.3865683 94.02410309 48.21757507 94.04255676 C49.92667775 94.08379256 51.63565825 94.1303842 53.34448242 94.18188477 C55.9515768 94.25720352 58.55827778 94.30640715 61.16601562 94.35351562 C62.82686522 94.39684545 64.48767543 94.44171763 66.1484375 94.48828125 C67.31431145 94.5072773 67.31431145 94.5072773 68.5037384 94.5266571 C72.99594172 94.68732299 76.13297297 95.18742284 79.66015625 98.0703125 C80.03515625 100.6953125 80.03515625 100.6953125 79.66015625 103.0703125 C78.66015625 104.0703125 78.66015625 104.0703125 75.67260742 104.16796875 C73.70771362 104.15056641 73.70771362 104.15056641 71.703125 104.1328125 C71.0037532 104.12902588 70.30438141 104.12523926 69.58381653 104.12133789 C66.58209178 104.10495021 63.58050128 104.07693673 60.57885742 104.04980469 C58.39111971 104.03169072 56.20340445 104.01960942 54.015625 104.0078125 C52.04565552 103.99041016 52.04565552 103.99041016 50.03588867 103.97265625 C46.2206166 103.99774152 46.2206166 103.99774152 42.66015625 105.0703125 C41.48212006 106.88146672 41.48212006 106.88146672 40.765625 109.20703125 C40.45334961 110.08367432 40.14107422 110.96031738 39.81933594 111.86352539 C39.33835449 113.29619751 39.33835449 113.29619751 38.84765625 114.7578125 C38.50508789 115.73935303 38.16251953 116.72089355 37.80957031 117.73217773 C33.79714068 129.33771442 29.85814437 141.03571923 26.6171875 152.8828125 C24.40935635 160.90427762 21.21506387 168.74992412 15.66015625 175.0703125 C13.03125 175.55078125 13.03125 175.55078125 10.66015625 175.0703125 C8.66015625 173.0703125 8.66015625 173.0703125 8.2890625 169.50390625 C8.41763817 164.4598712 10.36631474 160.57642422 12.59765625 156.1328125 C15.95505973 149.41220691 18.7460226 142.97081323 17.05859375 135.35546875 C16.72085938 134.62199219 16.383125 133.88851562 16.03515625 133.1328125 C15.48021484 131.89337891 15.48021484 131.89337891 14.9140625 130.62890625 C13.21657392 127.16518344 11.50684864 123.7107742 9.7109375 120.296875 C8.72506636 118.20785438 8.18265759 116.30893262 7.66015625 114.0703125 C7.32395264 114.57256348 6.98774902 115.07481445 6.64135742 115.59228516 C-0.62851805 126.41996932 -8.0384312 137.00720402 -16.33984375 147.0703125 C-16.83371582 147.67246582 -17.32758789 148.27461914 -17.83642578 148.89501953 C-23.20748661 155.41154303 -28.52193376 161.69292436 -35.109375 167.03125 C-37.77878604 169.47158724 -40.06263589 172.14585673 -42.42407227 174.88134766 C-45.63856428 178.55423352 -48.99893489 182.07299417 -52.40234375 185.5703125 C-53.08361328 186.29734375 -53.76488281 187.024375 -54.46679688 187.7734375 C-59.48568912 192.90321785 -59.48568912 192.90321785 -63.5546875 193.69921875 C-66.50211609 193.03367036 -68.3416077 192.19236251 -70.83984375 190.5078125 C-74.82318715 187.96157353 -78.83956588 185.7680377 -83.08984375 183.6953125 C-92.83466848 178.91558733 -102.22598788 173.62821326 -111.171875 167.46875 C-113.45513668 165.99594337 -115.79035732 164.79555067 -118.21484375 163.5703125 C-130.35775739 157.06212183 -141.84067266 148.26865053 -151.27734375 138.2421875 C-153.26780935 136.14616691 -155.33269543 134.26156447 -157.52734375 132.3828125 C-176.20652499 116.20164552 -188.9173633 93.86036244 -191.33984375 69.0703125 C-192.40708773 52.88912847 -189.20956967 37.8733884 -178.859375 24.98046875 C-167.60875135 13.14539712 -153.08179242 5.77668919 -136.67578125 4.8671875 C-118.00642338 4.64624835 -103.86018967 10.13856912 -90.2890625 23.12890625 C-89.64582031 23.76957031 -89.00257813 24.41023438 -88.33984375 25.0703125 C-85.64060099 22.62386891 -83.91334824 19.92463253 -82.02734375 16.8203125 C-73.3992072 3.15909629 -61.5289111 -5.74829018 -45.56201172 -9.53051758 C-29.11319659 -12.48523223 -13.80407564 -9.39246384 0 0 Z M18.47265625 112.3203125 C16.2456019 115.05899 16.2456019 115.05899 17.09765625 118.8828125 C18.50895527 123.16565635 20.53458087 127.10257179 22.66015625 131.0703125 C24.38003597 128.49049291 25.46297665 126.32094859 26.60546875 123.47265625 C26.95996094 122.58900391 27.31445312 121.70535156 27.6796875 120.79492188 C28.04449219 119.87517578 28.40929687 118.95542969 28.78515625 118.0078125 C29.15769531 117.08419922 29.53023437 116.16058594 29.9140625 115.20898438 C30.44193359 113.88543945 30.44193359 113.88543945 30.98046875 112.53515625 C31.30289551 111.7268335 31.62532227 110.91851074 31.95751953 110.08569336 C32.76989084 108.11128486 32.76989084 108.11128486 32.66015625 106.0703125 C27.56367389 106.0703125 22.49812867 109.47880255 18.47265625 112.3203125 Z " fill="#A16FDA" transform="translate(289.33984375,123.9296875)"/>
<path d="M0 0 C2.97 0.495 2.97 0.495 6 1 C7.50226986 5.70711223 6.28661202 9.21180122 4.6875 13.6875 C4.42549805 14.4491748 4.16349609 15.21084961 3.89355469 15.99560547 C0.95548758 24.39741744 -2.29602241 32.68861656 -5.5715332 40.96362305 C-7.78565268 46.60280942 -9.70942619 52.07770017 -11 58 C-8.26959802 55.43881364 -5.54090298 52.87581564 -2.8125 50.3125 C-2.04357422 49.59126953 -1.27464844 48.87003906 -0.48242188 48.12695312 C1.01955625 46.71522261 2.51713954 45.29879984 4.01000977 43.87744141 C5.57433036 42.40159484 7.17531573 40.96460281 8.7890625 39.54296875 C11.83266087 36.04229288 13.41588005 32.25465064 15.1875 28 C15.52974609 27.2059375 15.87199219 26.411875 16.22460938 25.59375 C17.16524352 23.40198113 18.08464819 21.20241465 19 19 C19.61294922 17.576875 19.61294922 17.576875 20.23828125 16.125 C21.16871618 13.90555792 21.16871618 13.90555792 21 11 C20.01 10.319375 20.01 10.319375 19 9.625 C17 8 17 8 16.4375 5.5 C17 3 17 3 19.125 1.125 C22.61882275 -0.24214803 24.42093361 -0.01147528 28 1 C31 3 31 3 31.93359375 5.91015625 C32.50382791 11.42241979 30.04285697 16.40641129 28.0625 21.4375 C27.67642578 22.45521484 27.29035156 23.47292969 26.89257812 24.52148438 C25.94240181 27.02009618 24.97800604 29.51217924 24 32 C25.98 31.34 27.96 30.68 30 30 C32.5625 32.0625 32.5625 32.0625 35 35 C35.36606758 39.85039539 33.90164044 42.47435612 30.875 46.0625 C27.47945687 49.66894643 23.83474213 52.86959826 20 56 C20.33 56.99 20.66 57.98 21 59 C28.95668226 57.92439997 33.96402294 51.37442953 38.7734375 45.3828125 C40 44 40 44 42 43 C41.95359375 42.35933594 41.9071875 41.71867187 41.859375 41.05859375 C41.59293321 34.67350665 42.15878631 31.15531311 46 26 C49.72614111 22.25440124 52.89278546 20.20261678 58.25 19.6875 C63.05899913 20.08824993 65.12795219 21.13468462 69 24 C70.125 26.375 70.125 26.375 70 29 C67.9815864 34.52407932 67.9815864 34.52407932 64.9375 36 C64.298125 36 63.65875 36 63 36 C62.34 35.34 61.68 34.68 61 34 C61.375 30.375 61.375 30.375 62 27 C55.99505315 29.93015622 55.99505315 29.93015622 52 35 C51.49193675 41.98586973 52.40534706 49.03406555 53 56 C54.00160156 55.43410156 55.00320313 54.86820312 56.03515625 54.28515625 C57.37728826 53.54369871 58.71975413 52.80284527 60.0625 52.0625 C60.71927734 51.68931641 61.37605469 51.31613281 62.05273438 50.93164062 C66.44077463 48.53226886 70.00873138 47.40890757 75 47 C75.33 48.32 75.66 49.64 76 51 C75.07719238 51.38369751 75.07719238 51.38369751 74.13574219 51.77514648 C71.32601649 52.96458997 68.53896096 54.20019556 65.75 55.4375 C64.29787109 56.03981445 64.29787109 56.03981445 62.81640625 56.65429688 C57.94634932 58.85421914 54.73038688 60.44640209 52.52734375 65.46875 C52.00214217 66.97364849 51.49168803 68.48382091 51 70 C46.25715012 79.5203191 40.83165804 85.94319441 32.125 92 C27.39858012 93.51245436 22.90997752 93.67301873 18 93 C15.25 91.4375 15.25 91.4375 14 89 C13.71756017 85.3282822 14.20666273 83.07982017 16.40625 80.0859375 C23.20783182 72.85205175 31.97935938 67.01829385 40.8125 62.5625 C42.71639104 61.56098876 42.71639104 61.56098876 44 60 C44.65316672 56.56954714 44.48159265 53.44472522 44 50 C43.39414062 50.65226562 42.78828125 51.30453125 42.1640625 51.9765625 C28.94935888 65.76051489 28.94935888 65.76051489 20.125 66.1875 C16.45630979 64.79339772 15.09545568 63.26891087 13 60 C12.29423828 60.95712891 12.29423828 60.95712891 11.57421875 61.93359375 C10.95160156 62.75988281 10.32898438 63.58617187 9.6875 64.4375 C9.07261719 65.26121094 8.45773437 66.08492188 7.82421875 66.93359375 C6 69 6 69 3 70 C0.8125 69.0625 0.8125 69.0625 -1 68 C-0.46148032 62.72250715 0.77343836 58.74354436 3 54 C2.05125 54.845625 1.1025 55.69125 0.125 56.5625 C-2.88632886 59.12090542 -5.95681041 61.57558621 -9.125 63.9375 C-9.93195313 64.54464844 -10.73890625 65.15179688 -11.5703125 65.77734375 C-14 67 -14 67 -16.7421875 66.81640625 C-19 66 -19 66 -20 64 C-20.06996014 62.29297265 -20.08440154 60.58331997 -20.0625 58.875 C-20.05347656 57.96492188 -20.04445313 57.05484375 -20.03515625 56.1171875 C-20.02355469 55.41851562 -20.01195312 54.71984375 -20 54 C-20.75023437 54.58007812 -21.50046875 55.16015625 -22.2734375 55.7578125 C-39.89547797 69.20737991 -39.89547797 69.20737991 -44.140625 68.7890625 C-47.08310295 67.54036388 -48.309658 65.65625172 -50 63 C-50.25 60.1875 -50.25 60.1875 -50 58 C-50.44730469 58.40992188 -50.89460938 58.81984375 -51.35546875 59.2421875 C-57.86789173 65.04643655 -57.86789173 65.04643655 -62 66 C-65.1875 65.8125 -65.1875 65.8125 -68 65 C-70.72874688 60.90687968 -70.84528885 57.80520057 -70 53 C-65.61191986 43.13933321 -56.65888397 36.21478573 -47 32 C-44.5 33.8125 -44.5 33.8125 -42 36 C-42 36.99 -42 37.98 -42 39 C-41.34 39 -40.68 39 -40 39 C-39.71125 38.236875 -39.4225 37.47375 -39.125 36.6875 C-38 34 -38 34 -36 31 C-34.35 31.33 -32.7 31.66 -31 32 C-29.74982591 36.27227513 -30.27177168 38.50181642 -32.08984375 42.51953125 C-32.54423828 43.54111328 -32.99863281 44.56269531 -33.46679688 45.61523438 C-33.95212891 46.67033203 -34.43746094 47.72542969 -34.9375 48.8125 C-35.41896484 49.88693359 -35.90042969 50.96136719 -36.39648438 52.06835938 C-37.58581706 54.71786287 -38.78726294 57.36114758 -40 60 C-39.505 60.495 -39.505 60.495 -39 61 C-33.74169991 56.4320354 -28.54737539 51.79995532 -23.39453125 47.11328125 C-21 45 -21 45 -18.58374023 43.42114258 C-15.05253123 40.11215649 -13.89100105 36.63701638 -12.265625 32.1484375 C-11.94213074 31.29319489 -11.61863647 30.43795227 -11.28533936 29.55679321 C-10.25919358 26.83466427 -9.25424459 24.10527495 -8.25 21.375 C-7.56001329 19.5307183 -6.86862192 17.68696146 -6.17578125 15.84375 C-4.65590906 11.79875002 -3.14989645 7.74887219 -1.65606689 3.69418335 C-1 2 -1 2 0 0 Z M-52.27734375 45.01171875 C-53.15519531 45.89472656 -54.03304688 46.77773438 -54.9375 47.6875 C-55.81277344 48.55761719 -56.68804687 49.42773438 -57.58984375 50.32421875 C-61.57777102 54.58619495 -61.57777102 54.58619495 -63 60 C-57.23081001 57.98487513 -52.99806108 54.59158767 -49 50 C-48.00293074 47.40761991 -47.94128318 45.81840743 -48 43 C-50.25661842 42.77931776 -50.25661842 42.77931776 -52.27734375 45.01171875 Z M42 67 C33.92689676 72.17506618 25.68365749 78.0978033 19 85 C19 85.66 19 86.32 19 87 C26.90861837 86.40685362 32.88255683 81.80898955 38 76 C39.73433062 73.70512605 41.37137687 71.37313656 43 69 C42.67 68.34 42.34 67.68 42 67 Z " fill="#111A05" transform="translate(395,227)"/>
<path d="M0 0 C1.52324178 0.02205295 3.04633446 0.05653627 4.5690918 0.10083008 C5.3756572 0.118741 6.1822226 0.13665192 7.01322937 0.15510559 C8.72233205 0.19634139 10.43131255 0.24293302 12.14013672 0.29443359 C14.7472311 0.36975234 17.35393208 0.41895598 19.96166992 0.46606445 C21.62251951 0.50939427 23.28332972 0.55426646 24.9440918 0.60083008 C26.10996574 0.61982613 26.10996574 0.61982613 27.2993927 0.63920593 C31.79159601 0.79987182 34.92862727 1.29997167 38.45581055 4.18286133 C38.83081055 6.80786133 38.83081055 6.80786133 38.45581055 9.18286133 C37.45581055 10.18286133 37.45581055 10.18286133 34.46826172 10.28051758 C33.15833252 10.26891602 31.84840332 10.25731445 30.4987793 10.24536133 C29.7994075 10.24157471 29.10003571 10.23778809 28.37947083 10.23388672 C25.37774607 10.21749904 22.37615557 10.18948556 19.37451172 10.16235352 C17.18677401 10.14423955 14.99905875 10.13215825 12.8112793 10.12036133 C11.49796631 10.10875977 10.18465332 10.0971582 8.83154297 10.08520508 C5.0162709 10.11029034 5.0162709 10.11029034 1.45581055 11.18286133 C0.27777435 12.99401555 0.27777435 12.99401555 -0.4387207 15.31958008 C-0.75099609 16.19622314 -1.06327148 17.07286621 -1.38500977 17.97607422 C-1.70566406 18.93118896 -2.02631836 19.88630371 -2.35668945 20.87036133 C-2.87054199 22.34267212 -2.87054199 22.34267212 -3.39477539 23.84472656 C-7.40720502 35.45026324 -11.34620134 47.14826806 -14.5871582 58.99536133 C-16.79498935 67.01682645 -19.98928183 74.86247295 -25.54418945 81.18286133 C-28.1730957 81.66333008 -28.1730957 81.66333008 -30.54418945 81.18286133 C-32.54418945 79.18286133 -32.54418945 79.18286133 -32.9152832 75.61645508 C-32.78670753 70.57242003 -30.83803096 66.68897305 -28.60668945 62.24536133 C-25.24234646 55.51086474 -22.37843315 49.01532784 -24.21606445 41.39770508 C-24.5718457 40.64618164 -24.92762695 39.8946582 -25.29418945 39.12036133 C-25.66672852 38.28504883 -26.03926758 37.44973633 -26.4230957 36.58911133 C-26.79305664 35.79504883 -27.16301758 35.00098633 -27.54418945 34.18286133 C-29.87828948 28.76694091 -31.98257871 23.1781306 -31.54418945 17.18286133 C-29.66918945 14.80786133 -29.66918945 14.80786133 -27.54418945 13.18286133 C-27.21418945 12.19286133 -26.88418945 11.20286133 -26.54418945 10.18286133 C-24.13793945 8.90161133 -24.13793945 8.90161133 -21.04418945 7.68286133 C-19.96395508 7.25360352 -18.8837207 6.8243457 -17.77075195 6.38208008 C-14.30626579 5.09443207 -10.82768794 3.91584714 -7.28637695 2.85864258 C-3.86748884 1.53248194 -4.15448386 0.21434927 0 0 Z M-22.73168945 18.43286133 C-24.9587438 21.17153882 -24.9587438 21.17153882 -24.10668945 24.99536133 C-22.69539043 29.27820518 -20.66976483 33.21512062 -18.54418945 37.18286133 C-16.82430973 34.60304174 -15.74136905 32.43349742 -14.59887695 29.58520508 C-14.24438477 28.70155273 -13.88989258 27.81790039 -13.5246582 26.9074707 C-13.15985352 25.98772461 -12.79504883 25.06797852 -12.41918945 24.12036133 C-12.04665039 23.19674805 -11.67411133 22.27313477 -11.2902832 21.3215332 C-10.76241211 19.99798828 -10.76241211 19.99798828 -10.22387695 18.64770508 C-9.9014502 17.83938232 -9.57902344 17.03105957 -9.24682617 16.19824219 C-8.43445486 14.22383369 -8.43445486 14.22383369 -8.54418945 12.18286133 C-13.64067181 12.18286133 -18.70621703 15.59135138 -22.73168945 18.43286133 Z " fill="#121905" transform="translate(330.544189453125,217.817138671875)"/>
<path d="M0 0 C1.65 0.33 3.3 0.66 5 1 C6 4 6 4 4.9609375 6.3828125 C4.43757813 7.28773438 3.91421875 8.19265625 3.375 9.125 C2.86710937 10.01445312 2.35921875 10.90390625 1.8359375 11.8203125 C1.23007812 12.86960938 0.62421875 13.91890625 0 15 C-0.36617432 15.68989014 -0.73234863 16.37978027 -1.10961914 17.09057617 C-4.00981315 22.51729095 -7.28373595 27.31108148 -11.1875 32.0625 C-12.03526001 33.10120239 -12.03526001 33.10120239 -12.90014648 34.16088867 C-17.39976725 39.54559759 -22.23700688 43.97757939 -28 48 C-28.94359375 48.77537109 -28.94359375 48.77537109 -29.90625 49.56640625 C-32.47919631 51.32810643 -34.97102423 52.17482995 -37.9375 53.125 C-38.95714844 53.45757812 -39.97679687 53.79015625 -41.02734375 54.1328125 C-59.13778158 59.41601513 -77.74968132 56.05877242 -94.13452148 47.42480469 C-101.20245076 43.54105451 -107.93477475 39.35584218 -114 34 C-113.67 32.68 -113.34 31.36 -113 30 C-108.81267261 30 -108.37428165 30.13178014 -105.25 32.4375 C-87.08037953 44.98673051 -69.52012232 52.73229168 -47.09765625 49.59375 C-31.03413498 45.63644816 -18.48501579 32.74211584 -10.07910156 19.14453125 C-9.04516893 17.43423829 -8.0223899 15.71721798 -7 14 C-6.38769531 13.01902344 -5.77539062 12.03804687 -5.14453125 11.02734375 C-1.86288036 5.81458058 -1.86288036 5.81458058 0 0 Z " fill="#1A091F" transform="translate(272,219)"/>
<path d="M0 0 C14.12839401 10.99566641 23.51869798 25.01058882 26.34375 42.80078125 C28.64614803 66.59222752 21.82124438 85.89893868 11.66015625 107.0703125 C12.65015625 106.4103125 13.64015625 105.7503125 14.66015625 105.0703125 C13.5084227 107.53831297 12.6123206 109.11814815 10.66015625 111.0703125 C10.60034867 113.12149948 10.60034867 113.12149948 10.97265625 115.3828125 C11.0809375 116.18203125 11.18921875 116.98125 11.30078125 117.8046875 C11.68757115 120.24314557 12.11626652 122.66165796 12.66015625 125.0703125 C9.68913421 121.69415109 8.81316806 118.36653475 7.66015625 114.0703125 C7.32395264 114.57256348 6.98774902 115.07481445 6.64135742 115.59228516 C-0.25716124 125.86687398 -7.29513684 135.91413231 -15.09082031 145.52880859 C-17.08438367 147.98919934 -19.05337488 150.46919365 -21.02734375 152.9453125 C-22.13085843 154.32083581 -23.23474397 155.69606234 -24.33984375 157.0703125 C-24.66984375 156.0803125 -24.99984375 155.0903125 -25.33984375 154.0703125 C-22.29354499 148.48858495 -18.17356369 143.21350102 -13.33984375 139.0703125 C-12.67984375 139.0703125 -12.01984375 139.0703125 -11.33984375 139.0703125 C-11.25734375 138.5134375 -11.17484375 137.9565625 -11.08984375 137.3828125 C-10.33984375 135.0703125 -10.33984375 135.0703125 -8.40234375 132.6953125 C-6.18099145 129.86813684 -5.44396487 127.45628393 -4.33984375 124.0703125 C-3.53546875 123.3278125 -3.53546875 123.3278125 -2.71484375 122.5703125 C-1.00015962 121.01657928 -1.00015962 121.01657928 -1.15234375 117.8828125 C-1.21421875 116.9546875 -1.27609375 116.0265625 -1.33984375 115.0703125 C-0.34984375 115.0703125 0.64015625 115.0703125 1.66015625 115.0703125 C3.42630743 110.36057601 4.14610456 106.03947886 4.66015625 101.0703125 C8.41015625 99.9453125 8.41015625 99.9453125 10.66015625 101.0703125 C10.66015625 100.0803125 10.66015625 99.0903125 10.66015625 98.0703125 C11.32015625 98.0703125 11.98015625 98.0703125 12.66015625 98.0703125 C13.32015625 95.1003125 13.98015625 92.1303125 14.66015625 89.0703125 C15.32015625 89.0703125 15.98015625 89.0703125 16.66015625 89.0703125 C16.56734375 88.049375 16.56734375 88.049375 16.47265625 87.0078125 C16.6697463 83.92006832 17.58956333 81.79557247 18.86328125 79.0078125 C21.70603149 72.09602761 22.22812275 64.45507117 22.66015625 57.0703125 C22.72589844 56.13316406 22.79164063 55.19601563 22.859375 54.23046875 C23.18962861 45.74636747 21.45849007 38.05679807 18.66015625 30.0703125 C18.00015625 29.4103125 17.34015625 28.7503125 16.66015625 28.0703125 C15.99348958 26.0703125 15.32682292 24.0703125 14.66015625 22.0703125 C13.27130377 19.25250716 13.27130377 19.25250716 11.66015625 17.0703125 C11.00015625 17.0703125 10.34015625 17.0703125 9.66015625 17.0703125 C8.03515625 15.8203125 8.03515625 15.8203125 6.66015625 14.0703125 C6.66015625 12.7503125 6.66015625 11.4303125 6.66015625 10.0703125 C5.73203125 9.8846875 4.80390625 9.6990625 3.84765625 9.5078125 C-0.44883289 7.57018014 -0.55686614 5.30488433 -2.33984375 1.0703125 C-5.02174618 -0.81296843 -5.02174618 -0.81296843 -8.33984375 -1.9296875 C-9.51546875 -2.4453125 -10.69109375 -2.9609375 -11.90234375 -3.4921875 C-16.68716929 -5.27020633 -21.63939471 -5.84030611 -26.6796875 -6.5 C-29.33984375 -6.9296875 -29.33984375 -6.9296875 -30.33984375 -7.9296875 C-37.91724051 -8.61854175 -46.99768771 -7.15779153 -53.33984375 -2.9296875 C-55.3828125 -2.515625 -55.3828125 -2.515625 -57.52734375 -2.3046875 C-58.78546875 -2.1809375 -60.04359375 -2.0571875 -61.33984375 -1.9296875 C-61.33984375 -1.2696875 -61.33984375 -0.6096875 -61.33984375 0.0703125 C-62.65984375 -0.2596875 -63.97984375 -0.5896875 -65.33984375 -0.9296875 C-63.17814765 -2.06518517 -61.01122485 -3.18797722 -58.83984375 -4.3046875 C-58.23914063 -4.62179688 -57.6384375 -4.93890625 -57.01953125 -5.265625 C-38.67679665 -14.63212777 -16.62633924 -11.31276691 0 0 Z " fill="#CF8288" transform="translate(289.33984375,123.9296875)"/>
<path d="M0 0 C3 2 3 2 3.93359375 4.91015625 C4.50382791 10.42241979 2.04285697 15.40641129 0.0625 20.4375 C-0.51661133 21.96407227 -0.51661133 21.96407227 -1.10742188 23.52148438 C-2.05759819 26.02009618 -3.02199396 28.51217924 -4 31 C-3.34 31 -2.68 31 -2 31 C-2 31.66 -2 32.32 -2 33 C-2.99 33 -3.98 33 -5 33 C-5 33.66 -5 34.32 -5 35 C-6.65 35 -8.3 35 -10 35 C-10.33 35.99 -10.66 36.98 -11 38 C-12.32 38 -13.64 38 -15 38 C-16.31325745 34.39179008 -15.69480782 32.56079702 -14.12890625 29.12109375 C-13.71962891 28.20005859 -13.31035156 27.27902344 -12.88867188 26.33007812 C-12.2322168 24.89825195 -12.2322168 24.89825195 -11.5625 23.4375 C-10.70485342 21.5425216 -9.85177042 19.64546921 -9.00390625 17.74609375 C-8.42878296 16.48817017 -8.42878296 16.48817017 -7.84204102 15.20483398 C-6.82161311 12.92626356 -6.82161311 12.92626356 -7 10 C-7.66 9.54625 -8.32 9.0925 -9 8.625 C-11 7 -11 7 -11.5625 4.5 C-11 2 -11 2 -8.875 0.125 C-5.38117725 -1.24214803 -3.57906639 -1.01147528 0 0 Z " fill="#162008" transform="translate(423,228)"/>
<path d="M0 0 C4.59788951 1.1098354 7.24467224 2.09839492 10.5 5.625 C11.90657595 7.22524154 11.90657595 7.22524154 14 7 C14.33 6.34 14.66 5.68 15 5 C15.33 6.32 15.66 7.64 16 9 C16.66 9 17.32 9 18 9 C18.33 10.65 18.66 12.3 19 14 C19.66 14 20.32 14 21 14 C21.33 13.01 21.66 12.02 22 11 C22.66 11 23.32 11 24 11 C24.33 11.66 24.66 12.32 25 13 C25.66 13 26.32 13 27 13 C27.33 12.34 27.66 11.68 28 11 C28 11.66 28 12.32 28 13 C29.65 12.67 31.3 12.34 33 12 C32.34 14.97 31.68 17.94 31 21 C31.66 21 32.32 21 33 21 C33 21.99 33 22.98 33 24 C33.78375 23.649375 34.5675 23.29875 35.375 22.9375 C36.674375 22.4734375 36.674375 22.4734375 38 22 C38.66 22.33 39.32 22.66 40 23 C40.2475 23.804375 40.495 24.60875 40.75 25.4375 C41.78792757 28.32981756 41.78792757 28.32981756 45.0625 29.0625 C46.031875 29.371875 47.00125 29.68125 48 30 C48.875 32.125 48.875 32.125 49 34 C49.99 34 50.98 34 52 34 C52 34.66 52 35.32 52 36 C53.32 36 54.64 36 56 36 C56 36.66 56 37.32 56 38 C56.66 38 57.32 38 58 38 C58 38.99 58 39.98 58 41 C53.50035643 39.69729669 50.13502193 37.94088856 46.3125 35.25 C42.60065718 32.6998097 38.96084045 30.39293711 34.9375 28.375 C22.19542172 21.59651068 9.35941955 12.04363387 0 1 C0 0.67 0 0.34 0 0 Z " fill="#7D6EE3" transform="translate(136,259)"/>
<path d="M0 0 C2.78510703 0.95489384 4.8684315 1.89202802 7.15625 3.76953125 C18.03160122 12.2995114 30.72422084 17.56349041 44 21 C44 21.33 44 21.66 44 22 C41.03 22.495 41.03 22.495 38 23 C38 23.66 38 24.32 38 25 C38.66 25.33 39.32 25.66 40 26 C29.7287044 24.52397678 20.91761141 20.18927022 12.0625 15 C10.99841919 14.37750366 10.99841919 14.37750366 9.9128418 13.74243164 C5.60040586 11.14803674 1.78513618 8.31717725 -2 5 C-1.125 1.125 -1.125 1.125 0 0 Z " fill="#09061E" transform="translate(160,248)"/>
<path d="M0 0 C1.43088528 2.86177057 0.59991697 4.93375773 0 8 C-0.99 8 -1.98 8 -3 8 C-3 8.99 -3 9.98 -3 11 C-3.99 11 -4.98 11 -6 11 C-6.12375 11.721875 -6.2475 12.44375 -6.375 13.1875 C-7 16 -7 16 -7.9375 18.3125 C-12.73926384 30.45813795 -11.18634621 43.24677828 -10 56 C-9.34 56 -8.68 56 -8 56 C-7.86464844 56.65484375 -7.72929688 57.3096875 -7.58984375 57.984375 C-5.96003234 64.89399462 -3.34098274 70.29744895 0.4765625 76.2734375 C1.96238336 78.93267587 2.59668966 81.00242313 3 84 C3.66 84 4.32 84 5 84 C5.268125 84.61875 5.53625 85.2375 5.8125 85.875 C6.95556848 88.2995233 6.95556848 88.2995233 10 90 C10 90.66 10 91.32 10 92 C12.97 91.505 12.97 91.505 16 91 C15.93039063 91.59167969 15.86078125 92.18335938 15.7890625 92.79296875 C15.37003444 97.53364717 15.37003444 97.53364717 17.265625 101.7109375 C20.25999612 104.26283523 20.25999612 104.26283523 24 105 C24.33 106.65 24.66 108.3 25 110 C7.78033096 102.79176645 -2.44804025 79.3525627 -9.08984375 63.37890625 C-14.88265122 47.67204024 -15.33076643 28.5697038 -8.34765625 13.3203125 C-3.36159382 2.86965326 -3.36159382 2.86965326 0 0 Z " fill="#6B6EC0" transform="translate(111,149)"/>
<path d="M0 0 C0.495 1.98 0.495 1.98 1 4 C0.34 4 -0.32 4 -1 4 C-1 6.31 -1 8.62 -1 11 C-0.01 10.34 0.98 9.68 2 9 C0.84826645 11.46800047 -0.04783565 13.04783565 -2 15 C-2.05980758 17.05118698 -2.05980758 17.05118698 -1.6875 19.3125 C-1.57921875 20.11171875 -1.4709375 20.9109375 -1.359375 21.734375 C-0.9725851 24.17283307 -0.54388973 26.59134546 0 29 C-2.97102204 25.62383859 -3.84698819 22.29622225 -5 18 C-5.33620361 18.50225098 -5.67240723 19.00450195 -6.01879883 19.52197266 C-12.91731749 29.79656148 -19.95529309 39.84381981 -27.75097656 49.45849609 C-29.74453992 51.91888684 -31.71353113 54.39888115 -33.6875 56.875 C-34.79101468 58.25052331 -35.89490022 59.62574984 -37 61 C-37.495 59.515 -37.495 59.515 -38 58 C-34.95370124 52.41827245 -30.83371994 47.14318852 -26 43 C-25.34 43 -24.68 43 -24 43 C-23.87625 42.1646875 -23.87625 42.1646875 -23.75 41.3125 C-23 39 -23 39 -21.0625 36.625 C-18.8411477 33.79782434 -18.10412112 31.38597143 -17 28 C-16.46375 27.505 -15.9275 27.01 -15.375 26.5 C-13.66031587 24.94626678 -13.66031587 24.94626678 -13.8125 21.8125 C-13.9053125 20.4203125 -13.9053125 20.4203125 -14 19 C-13.01 19 -12.02 19 -11 19 C-9.23384882 14.29026351 -8.51405169 9.96916636 -8 5 C-4.25 3.875 -4.25 3.875 -2 5 C-2 4.01 -2 3.02 -2 2 C-1.34 2 -0.68 2 0 2 C0 1.34 0 0.68 0 0 Z " fill="#D26FBA" transform="translate(302,220)"/>
<path d="M0 0 C4.8 2.46153846 4.8 2.46153846 5.8125 5.1875 C5.874375 5.785625 5.93625 6.38375 6 7 C6.66 7 7.32 7 8 7 C8 7.66 8 8.32 8 9 C6.35 9 4.7 9 3 9 C2.34 10.65 1.68 12.3 1 14 C0.67 13.01 0.34 12.02 0 11 C-0.53109375 11.47050781 -1.0621875 11.94101562 -1.609375 12.42578125 C-2.31578125 13.04839844 -3.0221875 13.67101562 -3.75 14.3125 C-4.79414063 15.23482422 -4.79414063 15.23482422 -5.859375 16.17578125 C-7.85114506 17.87314734 -9.88898915 19.45477809 -12 21 C-12 19.02 -12 17.04 -12 15 C-15.39939744 16.40664722 -17.11569631 17.83094379 -19 21 C-19.36157879 24.0477445 -19.36157879 24.0477445 -19.1875 27.25 C-19.14689453 28.86648438 -19.14689453 28.86648438 -19.10546875 30.515625 C-19.07066406 31.33546875 -19.03585937 32.1553125 -19 33 C-20.8572246 31.42507354 -21.88521703 30.44311565 -22.50390625 28.0546875 C-22.68757709 21.2221322 -20.42010808 17.10848557 -16 12 C-11.16197867 7.0568043 -6.15597379 3.14347598 0 0 Z " fill="#1F2808" transform="translate(347,259)"/>
<path d="M0 0 C-1.875 3.875 -1.875 3.875 -3 5 C-2.34 5.66 -1.68 6.32 -1 7 C-1.56589844 7.48210937 -2.13179688 7.96421875 -2.71484375 8.4609375 C-3.44832031 9.09257812 -4.18179687 9.72421875 -4.9375 10.375 C-5.66839844 11.00148438 -6.39929688 11.62796875 -7.15234375 12.2734375 C-9.08380906 13.87747714 -9.08380906 13.87747714 -10 16 C-6.04 15.01 -2.08 14.02 2 13 C3 15 3 15 3 17 C4.98 16.67 6.96 16.34 9 16 C3.01818254 20.98484788 -0.62565985 22.48578046 -8.421875 22.30859375 C-11 22 -11 22 -13.75 20.4375 C-15 18 -15 18 -15.25 14.75 C-13.4611259 9.38337769 -6.31496895 0 0 0 Z " fill="#121D05" transform="translate(424,298)"/>
<path d="M0 0 C1.32 0.66 2.64 1.32 4 2 C2.8553125 2.6496875 2.8553125 2.6496875 1.6875 3.3125 C-3.72899324 8.72899324 -4.45996932 17.57457812 -5 25 C-4.67 25.66 -4.34 26.32 -4 27 C-4.66 27.33 -5.32 27.66 -6 28 C-5.855625 28.61746094 -5.71125 29.23492187 -5.5625 29.87109375 C-4.43285737 35.02508827 -3.8559038 39.7444828 -3.99609375 45.015625 C-4.00086121 47.4374967 -3.60412666 49.65900921 -3 52 C-1.68 52.33 -0.36 52.66 1 53 C1 54.32 1 55.64 1 57 C1.37125 58.010625 1.7425 59.02125 2.125 60.0625 C2.41375 61.031875 2.7025 62.00125 3 63 C2.34 63.99 1.68 64.98 1 66 C-2.86694585 60.19958122 -4.05613723 54.86784355 -5 48 C-5.66 48 -6.32 48 -7 48 C-10.08142707 31.4373295 -9.36307931 18.62107309 -3 3 C-2.01 3 -1.02 3 0 3 C0 2.01 0 1.02 0 0 Z M-1 8 C-0.01 8.33 0.98 8.66 2 9 C2 10.32 2 11.64 2 13 C0.68 13.33 -0.64 13.66 -2 14 C-2.33 13.34 -2.66 12.68 -3 12 C-2.34 12 -1.68 12 -1 12 C-1 10.68 -1 9.36 -1 8 Z " fill="#5E68D7" transform="translate(108,157)"/>
<path d="M0 0 C3.16893968 2.51057271 6.13452907 5.1493377 9 8 C6 9 6 9 3 8 C3 7.01 3 6.02 3 5 C2.01 5 1.02 5 0 5 C-0.495 4.01 -0.495 4.01 -1 3 C-1.99 2.67 -2.98 2.34 -4 2 C-4 1.01 -4 0.02 -4 -1 C-4.75925781 -1.19335938 -5.51851563 -1.38671875 -6.30078125 -1.5859375 C-7.29464844 -1.84632813 -8.28851563 -2.10671875 -9.3125 -2.375 C-10.29863281 -2.63023437 -11.28476563 -2.88546875 -12.30078125 -3.1484375 C-15 -4 -15 -4 -18 -6 C-28.91989621 -8.62077509 -39.08010379 -8.62077509 -50 -6 C-50.99 -5.34 -51.98 -4.68 -53 -4 C-54.32 -4 -55.64 -4 -57 -4 C-57.24492187 -3.37867188 -57.48984375 -2.75734375 -57.7421875 -2.1171875 C-59.2844934 0.47886777 -60.32784027 0.85164888 -63.125 1.875 C-68.04452001 3.86832253 -71.90921687 6.65603559 -76 10 C-76.66 9.67 -77.32 9.34 -78 9 C-58.36589673 -13.74514077 -24.27301252 -15.68790122 0 0 Z " fill="#957C8B" transform="translate(190,139)"/>
<path d="M0 0 C0.99 1.98 0.99 1.98 2 4 C0.7625 4.6496875 0.7625 4.6496875 -0.5 5.3125 C-1.7375 6.1478125 -1.7375 6.1478125 -3 7 C-3 7.99 -3 8.98 -3 10 C-3.66 10 -4.32 10 -5 10 C-5 10.66 -5 11.32 -5 12 C-5.66 12 -6.32 12 -7 12 C-7.268125 12.556875 -7.53625 13.11375 -7.8125 13.6875 C-8.204375 14.450625 -8.59625 15.21375 -9 16 C-9.37125 16.845625 -9.7425 17.69125 -10.125 18.5625 C-12.48414408 21.62938731 -14.49427634 22.09456956 -18.08203125 23.2578125 C-20.71182922 24.27545326 -22.12004917 25.93205408 -24 28 C-29.05016197 32.53219664 -33.76218594 32.53538625 -40.26953125 32.7265625 C-41.17058594 32.81679688 -42.07164062 32.90703125 -43 33 C-43.33 33.66 -43.66 34.32 -44 35 C-51.92 35 -59.84 35 -68 35 C-68 34.34 -68 33.68 -68 33 C-70.97 33.495 -70.97 33.495 -74 34 C-74.33 32.68 -74.66 31.36 -75 30 C-74.39921631 30.14074951 -73.79843262 30.28149902 -73.17944336 30.42651367 C-66.91089065 31.80061725 -60.97236328 32.35208164 -54.5625 32.3125 C-53.18553955 32.30730347 -53.18553955 32.30730347 -51.78076172 32.30200195 C-45.13415129 32.19533087 -39.22928932 31.43456628 -33 29 C-31.865625 28.62875 -30.73125 28.2575 -29.5625 27.875 C-18.68608412 22.80107393 -11.15565516 14.28161068 -4 5 C-2.66889156 3.33155585 -1.33629418 1.66429367 0 0 Z " fill="#AD71C0" transform="translate(267,242)"/>
<path d="M0 0 C0 0.66 0 1.32 0 2 C-0.66 2 -1.32 2 -2 2 C-2.33 2.99 -2.66 3.98 -3 5 C-8.80981406 7.35215144 -14.48724151 7.30184885 -20.6875 7.25 C-22.09225586 7.26160156 -22.09225586 7.26160156 -23.52539062 7.2734375 C-24.42837891 7.27085937 -25.33136719 7.26828125 -26.26171875 7.265625 C-27.48314575 7.26224121 -27.48314575 7.26224121 -28.72924805 7.25878906 C-31.27403442 6.96876933 -32.86679215 6.41407946 -35 5 C-35.33 4.01 -35.66 3.02 -36 2 C-35.26885986 1.97494385 -34.53771973 1.9498877 -33.78442383 1.92407227 C-30.46028583 1.80777359 -27.13640759 1.68520072 -23.8125 1.5625 C-22.66201172 1.52318359 -21.51152344 1.48386719 -20.32617188 1.44335938 C-19.21435547 1.40146484 -18.10253906 1.35957031 -16.95703125 1.31640625 C-15.93585205 1.27974854 -14.91467285 1.24309082 -13.86254883 1.20532227 C-9.12852722 0.86576472 -4.7935187 -0.11147718 0 0 Z " fill="#0D051A" transform="translate(233,268)"/>
<path d="M0 0 C0.66 0.33 1.32 0.66 2 1 C-4.27648579 7.43927649 -4.27648579 7.43927649 -7.5 9.9375 C-9.68137822 11.73713703 -11.3271893 13.4595875 -13.15234375 15.59765625 C-16.99544094 20.02748966 -20.97280888 24.29746297 -25.0625 28.5 C-25.74376953 29.22703125 -26.42503906 29.9540625 -27.12695312 30.703125 C-32.13690995 35.82377251 -32.13690995 35.82377251 -36.17578125 36.6484375 C-39.31603943 35.9274377 -41.43320178 34.88859193 -44.125 33.125 C-47.03304766 31.24971693 -49.8716619 29.48487938 -53 28 C-49.9062723 26.63875981 -48.77421508 27.08063747 -45.5 28.25 C-42 30 -42 30 -39.875 31.625 C-37.62122847 33.27776579 -35.74077726 33.61933649 -33 34 C-33 33.34 -33 32.68 -33 32 C-32.02351983 30.97702078 -31.01868662 29.98095748 -30 29 C-29.484375 28.278125 -28.96875 27.55625 -28.4375 26.8125 C-27.963125 26.214375 -27.48875 25.61625 -27 25 C-26.34 25 -25.68 25 -25 25 C-25 24.01 -25 23.02 -25 22 C-23.68 22 -22.36 22 -21 22 C-20.731875 21.4225 -20.46375 20.845 -20.1875 20.25 C-18.9611378 17.92636635 -17.75156566 15.96175354 -16 14 C-15.01 14 -14.02 14 -13 14 C-12.67 12.68 -12.34 11.36 -12 10 C-11.34 10 -10.68 10 -10 10 C-10 9.34 -10 8.68 -10 8 C-7.00168415 4.65901948 -4.05424872 1.97233721 0 0 Z " fill="#A2789C" transform="translate(262,281)"/>
<path d="M0 0 C0.680625 0.268125 1.36125 0.53625 2.0625 0.8125 C1.7325 1.8025 1.4025 2.7925 1.0625 3.8125 C-0.2575 3.8125 -1.5775 3.8125 -2.9375 3.8125 C-2.91795641 5.67769735 -2.91795641 5.67769735 -1.9375 7.8125 C0.16963027 9.44478401 2.16990781 10.8187625 4.4375 12.1875 C5.0672876 12.5781665 5.6970752 12.96883301 6.34594727 13.37133789 C17.60891879 20.44404757 17.60891879 20.44404757 30.0625 24.8125 C30.0625 25.1425 30.0625 25.4725 30.0625 25.8125 C24.0078125 26.0078125 24.0078125 26.0078125 22.0625 25.8125 C21.4025 25.1525 20.7425 24.4925 20.0625 23.8125 C19.11375 23.503125 18.165 23.19375 17.1875 22.875 C14.0625 21.8125 14.0625 21.8125 11.9375 20.1875 C9.91241907 18.41825756 9.91241907 18.41825756 6.0625 18.8125 C5.7325 17.8225 5.4025 16.8325 5.0625 15.8125 C3.4125 15.8125 1.7625 15.8125 0.0625 15.8125 C-0.2675 16.4725 -0.5975 17.1325 -0.9375 17.8125 C-3.09127564 15.19051226 -4.33822174 13.16845828 -4.9375 9.8125 C-6.5875 9.4825 -8.2375 9.1525 -9.9375 8.8125 C-9.2775 8.4825 -8.6175 8.1525 -7.9375 7.8125 C-7.9375 7.1525 -7.9375 6.4925 -7.9375 5.8125 C-8.5975 5.4825 -9.2575 5.1525 -9.9375 4.8125 C-3.86310175 -0.24658096 -3.86310175 -0.24658096 0 0 Z " fill="#7A6BC6" transform="translate(161.9375,246.1875)"/>
<path d="M0 0 C2.0625 0.4375 2.0625 0.4375 4 1 C4 1.66 4 2.32 4 3 C6.00820499 3.66940166 8.01691964 4.33729285 10.02734375 5 C12.25592168 5.74969244 14.47597952 6.52479272 16.69140625 7.3125 C18.00259676 7.77085453 19.31379469 8.22918782 20.625 8.6875 C22.46964844 9.34298828 22.46964844 9.34298828 24.3515625 10.01171875 C30.58529684 11.70029989 35.01967862 11.07480538 41 9 C42.37215711 8.82947951 43.74769851 8.6847005 45.125 8.5625 C49.02830781 7.9958908 50.05027278 7.31764281 53 5 C55.109375 5.4140625 55.109375 5.4140625 57 6 C55.10807525 6.98669759 53.21128022 7.9640602 51.3125 8.9375 C49.72888672 9.75541016 49.72888672 9.75541016 48.11328125 10.58984375 C36.30758532 15.93721669 21.94129076 13.70591055 10.15991211 9.49926758 C4.80816056 7.46525552 -0.14751367 5.05526917 -5 2 C-4.360625 1.855625 -3.72125 1.71125 -3.0625 1.5625 C-1.02454854 1.18992819 -1.02454854 1.18992819 0 0 Z " fill="#745CA7" transform="translate(182,257)"/>
<path d="M0 0 C5.75 0.875 5.75 0.875 8 2 C8.66 1.67 9.32 1.34 10 1 C10 1.66 10 2.32 10 3 C10.66 3 11.32 3 12 3 C12 3.99 12 4.98 12 6 C12.78375 5.649375 13.5675 5.29875 14.375 4.9375 C15.24125 4.628125 16.1075 4.31875 17 4 C17.66 4.33 18.32 4.66 19 5 C19.2475 5.804375 19.495 6.60875 19.75 7.4375 C20.78792757 10.32981756 20.78792757 10.32981756 24.0625 11.0625 C25.031875 11.371875 26.00125 11.68125 27 12 C27.875 14.125 27.875 14.125 28 16 C28.99 16 29.98 16 31 16 C31 16.66 31 17.32 31 18 C32.32 18 33.64 18 35 18 C35 18.66 35 19.32 35 20 C35.66 20 36.32 20 37 20 C37 20.99 37 21.98 37 23 C32.50035643 21.69729669 29.13502193 19.94088856 25.3125 17.25 C21.38176328 14.55157603 17.46999852 12.09358058 13.25 9.875 C8.49734841 7.3572673 4.04892501 4.56166183 0 1 C0 0.67 0 0.34 0 0 Z " fill="#7F6BCE" transform="translate(157,277)"/>
<path d="M0 0 C-0.33990833 5.37992836 -0.68557793 9.53273547 -4 14 C-3.01 13.34 -2.02 12.68 -1 12 C1.6875 11.875 1.6875 11.875 4 12 C2.79618552 14.49361571 1.54571278 16.68143083 0 19 C-2.9375 19.875 -2.9375 19.875 -6 20 C-8.1997417 18.41245056 -8.90407585 17.42533809 -9.50390625 14.765625 C-9.64368165 8.76460133 -8.72191387 5.59089041 -4.60546875 1.1796875 C-3 0 -3 0 0 0 Z " fill="#060E04" transform="translate(336,273)"/>
<path d="M0 0 C2.01171875 1.55078125 2.01171875 1.55078125 3.01171875 3.55078125 C-0.20768801 2.44411018 -2.82361095 1.01898195 -5.61328125 -0.88671875 C-13.02374194 -5.61769083 -21.40448289 -6.61852859 -29.98828125 -7.44921875 C-30.48328125 -7.94421875 -30.48328125 -7.94421875 -30.98828125 -8.44921875 C-38.56567801 -9.138073 -47.64612521 -7.67732278 -53.98828125 -3.44921875 C-56.03125 -3.03515625 -56.03125 -3.03515625 -58.17578125 -2.82421875 C-59.43390625 -2.70046875 -60.69203125 -2.57671875 -61.98828125 -2.44921875 C-61.98828125 -1.78921875 -61.98828125 -1.12921875 -61.98828125 -0.44921875 C-63.30828125 -0.77921875 -64.62828125 -1.10921875 -65.98828125 -1.44921875 C-63.82658515 -2.58471642 -61.65966235 -3.70750847 -59.48828125 -4.82421875 C-58.88757813 -5.14132813 -58.286875 -5.4584375 -57.66796875 -5.78515625 C-38.65505293 -15.49387922 -17.18337699 -11.31343507 0 0 Z " fill="#C0877B" transform="translate(289.98828125,124.44921875)"/>
<path d="M0 0 C8.34677135 1.66935427 13.24949057 8.58582852 17.75 15.3125 C25.64613769 28.31577261 25.64613769 28.31577261 24.59375 34.31640625 C24.3978125 34.87199219 24.201875 35.42757812 24 36 C24 35.01 24 34.02 24 33 C23.34 33 22.68 33 22 33 C21.54625 32.05125 21.0925 31.1025 20.625 30.125 C19.19761746 26.99686321 19.19761746 26.99686321 17 25 C16.33333333 23 15.66666667 21 15 19 C13.61114752 16.18219466 13.61114752 16.18219466 12 14 C11.34 14 10.68 14 10 14 C8.375 12.75 8.375 12.75 7 11 C7 9.68 7 8.36 7 7 C5.02 6.34 3.04 5.68 1 5 C0.67 3.35 0.34 1.7 0 0 Z " fill="#D76FA3" transform="translate(289,127)"/>
<path d="M0 0 C1.45659065 2.91318129 0.88883937 5.27688116 0.625 8.5 C0.53476562 9.6653125 0.44453125 10.830625 0.3515625 12.03125 C0 15 0 15 -1 17 C-0.01 17.33 0.98 17.66 2 18 C2 21.3 2 24.6 2 28 C1.67 28 1.34 28 1 28 C0.67 25.69 0.34 23.38 0 21 C-0.67546875 21.73347656 -1.3509375 22.46695312 -2.046875 23.22265625 C-3.38492187 24.62837891 -3.38492187 24.62837891 -4.75 26.0625 C-6.07257813 27.47208984 -6.07257813 27.47208984 -7.421875 28.91015625 C-10 31 -10 31 -12.328125 30.80859375 C-12.87984375 30.54175781 -13.4315625 30.27492188 -14 30 C-11.81010186 23.81675821 -8.09643561 17.0482178 -2 14 C-2.02320313 13.32453125 -2.04640625 12.6490625 -2.0703125 11.953125 C-2.09738281 10.61507813 -2.09738281 10.61507813 -2.125 9.25 C-2.14820313 8.36828125 -2.17140625 7.4865625 -2.1953125 6.578125 C-1.99139502 3.8864142 -1.36551721 2.30095026 0 0 Z " fill="#253910" transform="translate(439,256)"/>
<path d="M0 0 C2.97 0.495 2.97 0.495 6 1 C7.36884358 5.51718381 6.47075246 8.58774263 5 13 C4.34 13 3.68 13 3 13 C3 13.66 3 14.32 3 15 C2.01 15 1.02 15 0 15 C-0.33 15.66 -0.66 16.32 -1 17 C-1.66 17 -2.32 17 -3 17 C-3.66 17.33 -4.32 17.66 -5 18 C-4.0122936 11.57409836 -2.86390108 5.85797948 0 0 Z " fill="#080D02" transform="translate(395,227)"/>
<path d="M0 0 C1.98 0.66 3.96 1.32 6 2 C5.35492261 3.34391123 4.6802367 4.67353844 4 6 C3.443125 7.134375 2.88625 8.26875 2.3125 9.4375 C-0.00696716 13.52963978 -3.06834269 15.50490979 -7 18 C-6.67 14.04 -6.34 10.08 -6 6 C-5.34 6 -4.68 6 -4 6 C-4 5.34 -4 4.68 -4 4 C-3.01 3.67 -2.02 3.34 -1 3 C-0.67 2.01 -0.34 1.02 0 0 Z " fill="#C76DC2" transform="translate(278,250)"/>
<path d="M0 0 C0 0.99 0 1.98 0 3 C-6.6 5.97 -13.2 8.94 -20 12 C-19.34 10.68 -18.68 9.36 -18 8 C-18 7.01 -18 6.02 -18 5 C-15.94587752 3.96241251 -13.88130395 2.9454966 -11.8125 1.9375 C-10.08966797 1.08478516 -10.08966797 1.08478516 -8.33203125 0.21484375 C-4.88683423 -1.04125973 -3.42091601 -1.12742053 0 0 Z " fill="#1C3407" transform="translate(471,275)"/>
<path d="M0 0 C1.43088528 2.86177057 0.59991697 4.93375773 0 8 C-0.99 8 -1.98 8 -3 8 C-3 8.99 -3 9.98 -3 11 C-3.99 11 -4.98 11 -6 11 C-6.12375 11.721875 -6.2475 12.44375 -6.375 13.1875 C-7 16 -7 16 -7.9375 18.3125 C-12.84706357 30.73080786 -11.10865516 43.97330193 -10 57 C-10.33 57 -10.66 57 -11 57 C-14.84067084 36.97364491 -13.29658851 20.78501651 -3 3 C-1.28125 1.09375 -1.28125 1.09375 0 0 Z " fill="#787B81" transform="translate(111,149)"/>
<path d="M0 0 C0.99 0.33 1.98 0.66 3 1 C3.359375 3.2578125 3.359375 3.2578125 3 6 C0.515625 8.0546875 0.515625 8.0546875 -2.75 9.875 C-4.35101563 10.79925781 -4.35101563 10.79925781 -5.984375 11.7421875 C-9 13 -9 13 -11.390625 12.6953125 C-11.92171875 12.46585937 -12.4528125 12.23640625 -13 12 C-12.25 7.25 -12.25 7.25 -10 5 C-10 5.66 -10 6.32 -10 7 C-4.53073873 4.1185719 -4.53073873 4.1185719 0 0 Z " fill="#0A1606" transform="translate(362,283)"/>
<path d="M0 0 C1.32 0.66 2.64 1.32 4 2 C2.8553125 2.6496875 2.8553125 2.6496875 1.6875 3.3125 C-3.72899324 8.72899324 -4.45996932 17.57457812 -5 25 C-4.67 25.66 -4.34 26.32 -4 27 C-4.99 27.33 -5.98 27.66 -7 28 C-7.44682233 18.69120137 -7.44371561 11.43115686 -3 3 C-2.01 3 -1.02 3 0 3 C0 2.01 0 1.02 0 0 Z M-1 8 C-0.01 8.33 0.98 8.66 2 9 C2 10.32 2 11.64 2 13 C0.68 13.33 -0.64 13.66 -2 14 C-2.33 13.34 -2.66 12.68 -3 12 C-2.34 12 -1.68 12 -1 12 C-1 10.68 -1 9.36 -1 8 Z " fill="#656CE2" transform="translate(108,157)"/>
<path d="M0 0 C0.66 0.33 1.32 0.66 2 1 C-5.25759606 11.56526151 -12.91250785 21.91250785 -22 31 C-20.65469796 23.93716428 -15.34692024 17.60429242 -10 13 C-9.34 13 -8.68 13 -8 13 C-7.9175 12.443125 -7.835 11.88625 -7.75 11.3125 C-6.77538491 8.30743682 -4.99175531 6.42745178 -3 4 C-2.67 3.01 -2.34 2.02 -2 1 C-1.34 0.67 -0.68 0.34 0 0 Z " fill="#B08480" transform="translate(286,250)"/>
<path d="M0 0 C0.680625 0.268125 1.36125 0.53625 2.0625 0.8125 C1.7325 1.8025 1.4025 2.7925 1.0625 3.8125 C-0.2575 3.8125 -1.5775 3.8125 -2.9375 3.8125 C-2.49046014 8.29133696 -2.49046014 8.29133696 0.0625 11.8125 C-0.2675 12.4725 -0.5975 13.1325 -0.9375 13.8125 C0.3825 14.1425 1.7025 14.4725 3.0625 14.8125 C2.0725 15.1425 1.0825 15.4725 0.0625 15.8125 C-0.2675 16.4725 -0.5975 17.1325 -0.9375 17.8125 C-3.09127564 15.19051226 -4.33822174 13.16845828 -4.9375 9.8125 C-6.5875 9.4825 -8.2375 9.1525 -9.9375 8.8125 C-9.2775 8.4825 -8.6175 8.1525 -7.9375 7.8125 C-7.9375 7.1525 -7.9375 6.4925 -7.9375 5.8125 C-8.5975 5.4825 -9.2575 5.1525 -9.9375 4.8125 C-3.86310175 -0.24658096 -3.86310175 -0.24658096 0 0 Z " fill="#7267C6" transform="translate(161.9375,246.1875)"/>
<path d="M0 0 C7.74136601 -0.10920422 15.31395526 0.02840067 23 1 C22.67 1.99 22.34 2.98 22 4 C18.89601022 4.08710289 15.79233452 4.14042309 12.6875 4.1875 C11.80642578 4.21263672 10.92535156 4.23777344 10.01757812 4.26367188 C8.74624023 4.27817383 8.74624023 4.27817383 7.44921875 4.29296875 C6.66893311 4.3086792 5.88864746 4.32438965 5.0847168 4.34057617 C2.48690663 3.91617692 1.61008982 3.03472889 0 1 C0 0.67 0 0.34 0 0 Z " fill="#03000B" transform="translate(197,270)"/>
<path d="M0 0 C0.99 0.99 1.98 1.98 3 3 C-0.3 3.33 -3.6 3.66 -7 4 C-7 3.34 -7 2.68 -7 2 C-8.4540625 2.0309375 -8.4540625 2.0309375 -9.9375 2.0625 C-13 2 -13 2 -14 1 C-16.01594582 0.76572222 -18.038474 0.58663876 -20.0625 0.4375 C-21.16722656 0.35371094 -22.27195313 0.26992187 -23.41015625 0.18359375 C-24.26480469 0.12300781 -25.11945313 0.06242188 -26 0 C-26 -0.33 -26 -0.66 -26 -1 C-17.3379182 -2.73241636 -8.52818913 -2.36262425 0 0 Z " fill="#876BCA" transform="translate(172,132)"/>
<path d="M0 0 C5.445 1.485 5.445 1.485 11 3 C11 3.33 11 3.66 11 4 C9.02 4.33 7.04 4.66 5 5 C5 5.66 5 6.32 5 7 C5.66 7.33 6.32 7.66 7 8 C2.39583374 7.39124245 -1.56483324 6.15277044 -5.875 4.4375 C-7.02742187 3.98246094 -8.17984375 3.52742188 -9.3671875 3.05859375 C-10.23601562 2.70925781 -11.10484375 2.35992187 -12 2 C-8.08263419 0.8299903 -5.02040985 1.30415983 -1 2 C-0.67 1.34 -0.34 0.68 0 0 Z " fill="#170E30" transform="translate(193,266)"/>
<path d="M0 0 C-0.37328935 5.35048061 -1.9957657 7.50912907 -6 11 C-6.66 10.34 -7.32 9.68 -8 9 C-8.4125 9.804375 -8.825 10.60875 -9.25 11.4375 C-11 14 -11 14 -13.1875 14.8125 C-13.785625 14.874375 -14.38375 14.93625 -15 15 C-13.68544658 12.06753467 -12.25126383 10.25126383 -10 8 C-9.54625 7.175 -9.0925 6.35 -8.625 5.5 C-6.53330721 2.28201109 -3.98881532 0 0 0 Z " fill="#0B030F" transform="translate(262,245)"/>
<path d="M0 0 C-1.875 3.875 -1.875 3.875 -3 5 C-2.34 5.66 -1.68 6.32 -1 7 C-3.64 8.98 -6.28 10.96 -9 13 C-9.33 12.34 -9.66 11.68 -10 11 C-11.98 11.99 -11.98 11.99 -14 13 C-12.45212498 9.16549144 -10.06277254 6.97444301 -7 4.25 C-6.113125 3.45078125 -5.22625 2.6515625 -4.3125 1.828125 C-2 0 -2 0 0 0 Z " fill="#284F0E" transform="translate(424,298)"/>
<path d="M0 0 C0.66 0.33 1.32 0.66 2 1 C0.68 2.65 -0.64 4.3 -2 6 C-1.34 6 -0.68 6 0 6 C0 5.34 0 4.68 0 4 C1.98 3.67 3.96 3.34 6 3 C1.79415459 8.18720934 -2.60543632 9.47275469 -9 11 C-8.67 10.01 -8.34 9.02 -8 8 C-7.34 8 -6.68 8 -6 8 C-6 7.34 -6 6.68 -6 6 C-7.32 5.67 -8.64 5.34 -10 5 C-8.38007835 4.13624104 -6.75388139 3.28424146 -5.125 2.4375 C-4.22007812 1.96183594 -3.31515625 1.48617188 -2.3828125 0.99609375 C-1.20332031 0.50302734 -1.20332031 0.50302734 0 0 Z " fill="#1A0D23" transform="translate(239,262)"/>
<path d="M0 0 C5.1339811 1.23923682 7.67676832 2.30460941 11 6.5625 C12.76637442 9.05309672 12.76637442 9.05309672 15 10 C15.33 10.99 15.66 11.98 16 13 C17.62652316 14.70586575 19.29006566 16.3777546 21 18 C12.85515679 14.22108626 5.93826248 7.6340262 0 1 C0 0.67 0 0.34 0 0 Z " fill="#7F7E92" transform="translate(136,259)"/>
<path d="M0 0 C0.5993335 0.14219971 1.19866699 0.28439941 1.81616211 0.4309082 C8.14983383 1.82974467 14.08937416 2.27786693 20.5625 2.1875 C21.44357422 2.18685547 22.32464844 2.18621094 23.23242188 2.18554688 C28.88994981 2.1479692 34.38775547 1.71221377 40 1 C39.67 1.66 39.34 2.32 39 3 C36.69 3 34.38 3 32 3 C31.67 3.66 31.34 4.32 31 5 C23.08 5 15.16 5 7 5 C7 4.34 7 3.68 7 3 C5.02 3.33 3.04 3.66 1 4 C0.67 2.68 0.34 1.36 0 0 Z " fill="#795DAA" transform="translate(192,272)"/>
<path d="M0 0 C2.109375 0.4140625 2.109375 0.4140625 4 1 C2.10807525 1.98669759 0.21128022 2.9640602 -1.6875 3.9375 C-2.74324219 4.48277344 -3.79898438 5.02804687 -4.88671875 5.58984375 C-10.70514803 8.2252929 -16.03504214 8.12690959 -22.3125 8.0625 C-23.56643555 8.05573242 -23.56643555 8.05573242 -24.84570312 8.04882812 C-26.89716649 8.03710548 -28.94859273 8.01917203 -31 8 C-31 7.67 -31 7.34 -31 7 C-30.13117188 6.95101563 -29.26234375 6.90203125 -28.3671875 6.8515625 C-27.21476563 6.77679688 -26.06234375 6.70203125 -24.875 6.625 C-23.16957031 6.52058594 -23.16957031 6.52058594 -21.4296875 6.4140625 C-18.03484912 6.0042073 -15.21627338 5.12391874 -12 4 C-9.8046875 3.69140625 -9.8046875 3.69140625 -7.875 3.5625 C-3.97169219 2.9958908 -2.94972722 2.31764281 0 0 Z " fill="#79599B" transform="translate(235,262)"/>
<path d="M0 0 C0 4.57142857 0 4.57142857 -1 7 C-2.95927063 8.7143618 -4.95880212 10.38405168 -7 12 C-8.38226016 14.76452033 -8.09525387 17.0461363 -8.0625 20.125 C-8.04896484 21.76855469 -8.04896484 21.76855469 -8.03515625 23.4453125 C-8.02355469 24.28835938 -8.01195312 25.13140625 -8 26 C-9.8572246 24.42507354 -10.88521703 23.44311565 -11.50390625 21.0546875 C-11.7076965 13.47369035 -8.4497665 8.82415977 -3.48828125 3.32421875 C-2.36225592 2.17883482 -1.18690143 1.08217483 0 0 Z " fill="#485B14" transform="translate(336,266)"/>
<path d="M0 0 C5.82214168 0.30642851 8.84807461 1.24018209 13.390625 4.85546875 C15.49738307 6.35372146 17.44814734 6.76801339 20 7 C20 6.34 20 5.68 20 5 C21.32 4.67 22.64 4.34 24 4 C20.90387374 8.76327116 20.90387374 8.76327116 17.375 9.6875 C13.07178531 8.81091923 10.03282503 6.87163483 6.3671875 4.5078125 C4.28946835 3.18438083 2.22278704 2.0550556 0 1 C0 0.67 0 0.34 0 0 Z " fill="#9C8C89" transform="translate(209,308)"/>
<path d="M0 0 C-1.85019703 3.26505358 -2.816607 3.94432713 -6.5 5.0625 C-8.2325 5.5265625 -8.2325 5.5265625 -10 6 C-11.64594139 7.39588754 -11.64594139 7.39588754 -13 9 C-17.44444444 12 -17.44444444 12 -21 12 C-8.90697674 -1.11337209 -8.90697674 -1.11337209 0 0 Z " fill="#8076A2" transform="translate(133,136)"/>
<path d="M0 0 C2.68243901 0.38320557 4.09801411 1.07152381 6.3125 2.6875 C8 5 8 5 7.75 8.25 C7.5025 9.1575 7.255 10.065 7 11 C6.01 11.33 5.02 11.66 4 12 C4 11.34 4 10.68 4 10 C3.01 10 2.02 10 1 10 C1.32552083 7.98177083 1.65104167 5.96354167 1.9765625 3.9453125 C1.98429687 3.30335938 1.99203125 2.66140625 2 2 C1.34 1.34 0.68 0.68 0 0 Z " fill="#242C04" transform="translate(457,248)"/>
<path d="M0 0 C-0.43204221 5.89699715 -2.13510092 9.52734688 -5.4375 14.375 C-5.84548828 15.00277344 -6.25347656 15.63054687 -6.67382812 16.27734375 C-9.70129641 20.8506482 -9.70129641 20.8506482 -12 22 C-10.99806563 18.20696275 -10.18975773 15.28463659 -8 12 C-7.67 11.34 -7.34 10.68 -7 10 C-6.34 10 -5.68 10 -5 10 C-4.896875 8.906875 -4.79375 7.81375 -4.6875 6.6875 C-3.44067797 0 -3.44067797 0 0 0 Z " fill="#AE6DB8" transform="translate(269,223)"/>
<path d="M0 0 C1 3 1 3 1 6 C-1.32613633 8.74151781 -3.57324247 10.8220521 -7 12 C-9.25 11.625 -9.25 11.625 -11 11 C-9.02 10.01 -7.04 9.02 -5 8 C-6.65 7.67 -8.3 7.34 -10 7 C-7.96153279 5.64102186 -5.91973686 4.28702633 -3.875 2.9375 C-1.21312042 1.27685736 -1.21312042 1.27685736 0 0 Z " fill="#0F1E02" transform="translate(426,281)"/>
<path d="M0 0 C0 0.99 0 1.98 0 3 C-0.50015625 3.46664062 -1.0003125 3.93328125 -1.515625 4.4140625 C-3.21893752 5.89263069 -3.21893752 5.89263069 -3.109375 8.0859375 C-2.99078125 8.84132812 -2.8721875 9.59671875 -2.75 10.375 C-2.63269531 11.16519531 -2.51539063 11.95539063 -2.39453125 12.76953125 C-1.75392332 16.39598087 -1.75392332 16.39598087 -1 20 C-3.96052484 16.63576723 -4.92289822 13.30840713 -6 9 C-7.32 10.98 -8.64 12.96 -10 15 C-10.33 14.01 -10.66 13.02 -11 12 C-9.8125 9.6875 -9.8125 9.6875 -8 7 C-7.34 5.906875 -6.68 4.81375 -6 3.6875 C-5.01 2.3571875 -5.01 2.3571875 -4 1 C-3.01 1 -2.02 1 -1 1 C-0.67 0.67 -0.34 0.34 0 0 Z " fill="#94854D" transform="translate(303,229)"/>
<path d="M0 0 C0.99 0 1.98 0 3 0 C2.67 1.65 2.34 3.3 2 5 C2.66 5.33 3.32 5.66 4 6 C3.34 6.66 2.68 7.32 2 8 C1.34 8 0.68 8 0 8 C-0.33 8.66 -0.66 9.32 -1 10 C-1.66 10 -2.32 10 -3 10 C-3 10.99 -3 11.98 -3 13 C-3.99 12.67 -4.98 12.34 -6 12 C-5.38144369 10.3725363 -4.75492695 8.74809644 -4.125 7.125 C-3.77695312 6.22007812 -3.42890625 5.31515625 -3.0703125 4.3828125 C-2 2 -2 2 0 0 Z " fill="#AF6AB3" transform="translate(276,226)"/>
<path d="M0 0 C2 2 2 2 2 5 C2.66 5 3.32 5 4 5 C5.90640153 8.99823802 6.1852641 11.99092752 5.9765625 16.39453125 C5.925 17.59658203 5.8734375 18.79863281 5.8203125 20.03710938 C5.75585938 21.28298828 5.69140625 22.52886719 5.625 23.8125 C5.56828125 25.07771484 5.5115625 26.34292969 5.453125 27.64648438 C5.31191298 30.76491646 5.16052192 33.88251205 5 37 C4.67 37 4.34 37 4 37 C3.98541748 36.3608667 3.97083496 35.7217334 3.95581055 35.06323242 C3.88030517 32.1041155 3.78399275 29.1460041 3.6875 26.1875 C3.66494141 25.18267578 3.64238281 24.17785156 3.61914062 23.14257812 C3.39664692 16.85207421 2.50134806 11.28681864 0.63208008 5.27075195 C0 3 0 3 0 0 Z " fill="#D86A9E" transform="translate(309,155)"/>
<path d="M0 0 C1.6396875 0.2475 1.6396875 0.2475 3.3125 0.5 C6.87525873 1.06718184 6.87525873 1.06718184 10 1 C10.33 3.97 10.66 6.94 11 10 C11.99 9.67 12.98 9.34 14 9 C13.67 9.99 13.34 10.98 13 12 C12.01 11.67 11.02 11.34 10 11 C9.67 9.35 9.34 7.7 9 6 C8.01 6.33 7.02 6.66 6 7 C4.02 4.69 2.04 2.38 0 0 Z " fill="#6A65CB" transform="translate(126,248)"/>
<path d="M0 0 C0.66 0 1.32 0 2 0 C2.14695312 0.65484375 2.29390625 1.3096875 2.4453125 1.984375 C4.31055405 9.57397854 7.29781023 16.13477431 11 23 C10.01 23 9.02 23 8 23 C6.84307254 20.48375829 5.69942568 17.96276546 4.5625 15.4375 C4.23701172 14.73302734 3.91152344 14.02855469 3.57617188 13.30273438 C1.5697454 8.81413082 0.45715531 4.89993224 0 0 Z " fill="#686D91" transform="translate(101,205)"/>
<path d="M0 0 C0.99 0.33 1.98 0.66 3 1 C2.57847656 1.61488281 2.15695312 2.22976563 1.72265625 2.86328125 C1.17480469 3.67152344 0.62695312 4.47976563 0.0625 5.3125 C-0.48277344 6.11300781 -1.02804687 6.91351563 -1.58984375 7.73828125 C-3.13837326 10.0258143 -3.13837326 10.0258143 -4 13 C-7 15 -7 15 -9.1875 14.625 C-9.785625 14.41875 -10.38375 14.2125 -11 14 C-11 13.34 -11 12.68 -11 12 C-9.5390625 10.7109375 -9.5390625 10.7109375 -7.625 9.375 C-6.99851562 8.92898438 -6.37203125 8.48296875 -5.7265625 8.0234375 C-4 7 -4 7 -2 7 C-2.33 6.01 -2.66 5.02 -3 4 C-1.5625 1.8125 -1.5625 1.8125 0 0 Z " fill="#B66CB8" transform="translate(268,268)"/>
<path d="M0 0 C0.33 0.66 0.66 1.32 1 2 C1.66 2.33 2.32 2.66 3 3 C2.37935063 4.60585493 1.7533082 6.20962617 1.125 7.8125 C0.77695312 8.70582031 0.42890625 9.59914062 0.0703125 10.51953125 C-1 13 -1 13 -3 16 C-5.625 16.6875 -5.625 16.6875 -8 17 C-6.84826645 14.53199953 -5.95216435 12.95216435 -4 11 C-3.83318891 7.91652174 -3.83318891 7.91652174 -4 5 C-3.01 5 -2.02 5 -1 5 C-0.67 3.35 -0.34 1.7 0 0 Z " fill="#C974AB" transform="translate(292,234)"/>
<path d="M0 0 C0.73605469 0.00451172 1.47210938 0.00902344 2.23046875 0.01367188 C4.02868158 0.02534858 5.82685197 0.04327989 7.625 0.0625 C7.625 0.3925 7.625 0.7225 7.625 1.0625 C5.706875 1.24425781 5.706875 1.24425781 3.75 1.4296875 C2.04163581 1.5986466 0.33330416 1.76793499 -1.375 1.9375 C-2.21417969 2.01613281 -3.05335938 2.09476563 -3.91796875 2.17578125 C-10.22466318 2.8113396 -16.26080254 3.71773292 -22.125 6.25 C-24.73871224 7.19384053 -25.77706107 6.83205754 -28.375 6.0625 C-26.16888434 5.24351734 -23.9604166 4.43222457 -21.75 3.625 C-20.52023438 3.17253906 -19.29046875 2.72007812 -18.0234375 2.25390625 C-11.92013843 0.26085891 -6.34855754 -0.07462138 0 0 Z " fill="#918680" transform="translate(157.375,128.9375)"/>
<path d="M0 0 C0.66 0.33 1.32 0.66 2 1 C-4.24421594 7.40616967 -4.24421594 7.40616967 -7.625 10.0625 C-10.54144032 12.44170132 -12.65882586 15.05680965 -15 18 C-15.33 16.68 -15.66 15.36 -16 14 C-15.01 14 -14.02 14 -13 14 C-12.67 12.68 -12.34 11.36 -12 10 C-11.34 10 -10.68 10 -10 10 C-10 9.34 -10 8.68 -10 8 C-7.00168415 4.65901948 -4.05424872 1.97233721 0 0 Z " fill="#A0788D" transform="translate(262,281)"/>
<path d="M0 0 C0.99 0.33 1.98 0.66 3 1 C2.01 1.66 1.02 2.32 0 3 C-0.928125 3.78375 -1.85625 4.5675 -2.8125 5.375 C-10.60970582 11.87910485 -10.60970582 11.87910485 -14.875 12.25 C-15.57625 12.1675 -16.2775 12.085 -17 12 C-17 11.34 -17 10.68 -17 10 C-16.1646875 9.67128906 -16.1646875 9.67128906 -15.3125 9.3359375 C-10.13123563 7.1829121 -6.00578034 4.71067342 -1.7265625 1.07421875 C-0.87191406 0.54248047 -0.87191406 0.54248047 0 0 Z " fill="#9567B3" transform="translate(249,262)"/>
<path d="M0 0 C-5.75438777 3.83625851 -12.30589013 4.75643018 -19 6 C-19 6.66 -19 7.32 -19 8 C-20.32 7.67 -21.64 7.34 -23 7 C-8.58769932 -1.03644647 -8.58769932 -1.03644647 0 0 Z " fill="#B78383" transform="translate(247,116)"/>
<path d="M0 0 C3.55780196 0.60990891 6.6828589 1.5783681 10 3 C10 3.66 10 4.32 10 5 C11.32 5 12.64 5 14 5 C14 5.66 14 6.32 14 7 C14.66 7 15.32 7 16 7 C16 7.99 16 8.98 16 10 C9.8034553 8.53239731 4.93130534 4.88851943 0 1 C0 0.67 0 0.34 0 0 Z " fill="#8272A1" transform="translate(178,290)"/>
<path d="M0 0 C1.32 0 2.64 0 4 0 C4.66 0.66 5.32 1.32 6 2 C7.98821313 2.39764263 9.98944339 2.73775349 12 3 C11 5 11 5 8.75 6.1875 C5.67723079 7.09536363 4.03324784 6.92682573 1 6 C0 5 0 5 -0.0625 2.4375 C-0.041875 1.633125 -0.02125 0.82875 0 0 Z " fill="#050C03" transform="translate(410,285)"/>
<path d="M0 0 C1.32 0.66 2.64 1.32 4 2 C4 3.32 4 4.64 4 6 C4.33 6.99 4.66 7.98 5 9 C0.53828494 7.42527704 -4.79688514 5.40622971 -7 1 C-5.824375 1.309375 -5.824375 1.309375 -4.625 1.625 C-3.75875 1.74875 -2.8925 1.8725 -2 2 C-1.34 1.34 -0.68 0.68 0 0 Z " fill="#7A6AC9" transform="translate(172,249)"/>
<path d="M0 0 C1.60875 0.2784375 1.60875 0.2784375 3.25 0.5625 C7.07210322 1.23224429 7.07210322 1.23224429 11 0 C10.67 2.97 10.34 5.94 10 9 C9.34 9 8.68 9 8 9 C8 7.68 8 6.36 8 5 C5.525 4.01 5.525 4.01 3 3 C2.67 3.99 2.34 4.98 2 6 C1.01 5.34 0.02 4.68 -1 4 C-0.67 2.68 -0.34 1.36 0 0 Z " fill="#C073C4" transform="translate(269,216)"/>
<path d="M0 0 C5.79355528 1.32768975 10.0999919 3.66544904 15 7 C10.30003953 8.36024774 6.60399834 7.53466611 2 6 C2 5.34 2 4.68 2 4 C2.66 4 3.32 4 4 4 C4 3.34 4 2.68 4 2 C2.68 1.67 1.36 1.34 0 1 C0 0.67 0 0.34 0 0 Z " fill="#D46CBB" transform="translate(274,119)"/>
<path d="M0 0 C4.95 1.98 4.95 1.98 10 4 C9.67 4.99 9.34 5.98 9 7 C5.37 6.34 1.74 5.68 -2 5 C-1.34 3.35 -0.68 1.7 0 0 Z " fill="#060111" transform="translate(183,262)"/>
<path d="M0 0 C6.40273217 0.59560299 9.69330744 3.50605993 14 8 C14.721875 8.721875 15.44375 9.44375 16.1875 10.1875 C16.785625 10.785625 17.38375 11.38375 18 12 C13.83740241 10.5199653 10.41490692 8.4553071 6.75 6 C5.69296875 5.29875 4.6359375 4.5975 3.546875 3.875 C1 2 1 2 0 0 Z " fill="#94937A" transform="translate(157,277)"/>
<path d="M0 0 C2.0625 0.4375 2.0625 0.4375 4 1 C4 1.66 4 2.32 4 3 C6.97 3.99 9.94 4.98 13 6 C13 6.33 13 6.66 13 7 C5.89945397 6.74319906 0.90244471 6.06612857 -5 2 C-4.360625 1.855625 -3.72125 1.71125 -3.0625 1.5625 C-1.02454854 1.18992819 -1.02454854 1.18992819 0 0 Z " fill="#8A71D7" transform="translate(182,257)"/>
<path d="M0 0 C5.13781306 4.59856738 8.42520088 12.38584371 10 19 C9.625 21.375 9.625 21.375 9 23 C9 22.01 9 21.02 9 20 C8.34 20 7.68 20 7 20 C5.81418741 17.20487033 4.86289791 14.49729234 4.0625 11.5625 C3.03423831 8.11479904 1.63345633 5.19266465 0 2 C0 1.34 0 0.68 0 0 Z " fill="#CD8677" transform="translate(304,140)"/>
<path d="M0 0 C0.66 0.33 1.32 0.66 2 1 C0.38405168 3.04119788 -1.2856382 5.04072937 -3 7 C-3.66 7 -4.32 7 -5 7 C-5.226875 7.556875 -5.45375 8.11375 -5.6875 8.6875 C-7.68085165 12.19959577 -10.36119749 15.18059875 -14 17 C-10.9121324 10.30708501 -6.05166356 4.21782612 0 0 Z " fill="#A88186" transform="translate(222,124)"/>
<path d="M0 0 C-0.86625 0.1546875 -0.86625 0.1546875 -1.75 0.3125 C-4.38127015 1.11649921 -5.98688093 2.13067515 -8 4 C-8 4.99 -8 5.98 -8 7 C-6.68 7.66 -5.36 8.32 -4 9 C-4.99 10.485 -4.99 10.485 -6 12 C-10.81203008 7.78947368 -10.81203008 7.78947368 -11.625 4.375 C-11 2 -11 2 -8.875 0.125 C-5.44578278 -1.21686761 -3.52120592 -0.90077361 0 0 Z " fill="#3B5A13" transform="translate(423,228)"/>
<path d="M0 0 C2.64 0.33 5.28 0.66 8 1 C8 1.66 8 2.32 8 3 C8.78375 3.144375 9.5675 3.28875 10.375 3.4375 C13 4 13 4 15 5 C15 5.99 15 6.98 15 8 C9.52067211 6.45454854 4.88570819 3.84456788 0 1 C0 0.67 0 0.34 0 0 Z " fill="#8C7898" transform="translate(194,300)"/>
<path d="M0 0 C0.66 1.32 1.32 2.64 2 4 C2.66 4 3.32 4 4 4 C4.433125 4.969375 4.86625 5.93875 5.3125 6.9375 C6.7014861 10.27731765 6.7014861 10.27731765 10 11 C10 11.66 10 12.32 10 13 C6.12793601 12.42636089 3.81534937 10.65894107 1 8 C1 7.01 1 6.02 1 5 C0.01 4.67 -0.98 4.34 -2 4 C-2 3.34 -2 2.68 -2 2 C-1.34 2 -0.68 2 0 2 C0 1.34 0 0.68 0 0 Z " fill="#7268CD" transform="translate(150,264)"/>
<path d="M0 0 C0.99 0.33 1.98 0.66 3 1 C2.25 2.9375 2.25 2.9375 1 5 C0.34 5.144375 -0.32 5.28875 -1 5.4375 C-1.66 5.623125 -2.32 5.80875 -3 6 C-4.29660434 8.49034386 -4.29660434 8.49034386 -5 11 C-5.66 10.34 -6.32 9.68 -7 9 C-5.66087415 4.61740632 -3.87774964 2.45906075 0 0 Z " fill="#6B67D4" transform="translate(117,145)"/>
<path d="M0 0 C0.99 0 1.98 0 3 0 C3.33 1.65 3.66 3.3 4 5 C4.66 5 5.32 5 6 5 C7.6875 7.25 7.6875 7.25 9 10 C8.58203125 12.171875 8.58203125 12.171875 8 14 C6.84669053 12.42210402 5.70262073 10.8374518 4.5625 9.25 C3.92441406 8.36828125 3.28632812 7.4865625 2.62890625 6.578125 C1.1724919 4.27300875 0.44068179 2.65650428 0 0 Z " fill="#7D8187" transform="translate(110,228)"/>
<path d="M0 0 C0.33 0.66 0.66 1.32 1 2 C3.02463255 2.65213292 3.02463255 2.65213292 5 3 C4.67 4.32 4.34 5.64 4 7 C2.35 7.33 0.7 7.66 -1 8 C-1.93065133 5.39417629 -2.14917407 4.35801776 -1.0625 1.75 C-0.711875 1.1725 -0.36125 0.595 0 0 Z " fill="#030701" transform="translate(351,288)"/>
<path d="M0 0 C0 0.66 0 1.32 0 2 C-0.66 2 -1.32 2 -2 2 C-1.649375 2.7425 -1.29875 3.485 -0.9375 4.25 C0.05379868 7.15780946 0.23956095 8.23482558 -1 11 C-1.99 11.66 -2.98 12.32 -4 13 C-3.979375 11.906875 -3.95875 10.81375 -3.9375 9.6875 C-3.81455548 6.05615809 -3.81455548 6.05615809 -5 3 C-2.25 0 -2.25 0 0 0 Z " fill="#141D06" transform="translate(339,267)"/>
<path d="M0 0 C4.03895528 1.75761131 6.38128213 4.33592037 9.31640625 7.5390625 C11.00612769 9.32769871 11.00612769 9.32769871 14 9 C14.33 10.65 14.66 12.3 15 14 C10.94772191 12.38873705 8.23778153 9.49978002 5.25 6.4375 C4.74339844 5.93025391 4.23679687 5.42300781 3.71484375 4.90039062 C0 1.14048812 0 1.14048812 0 0 Z " fill="#8E8E77" transform="translate(121,245)"/>
<path d="M0 0 C0 0.66 0 1.32 0 2 C-0.99 2 -1.98 2 -3 2 C-3 2.66 -3 3.32 -3 4 C-3.99 4 -4.98 4 -6 4 C-6.433125 4.928125 -6.433125 4.928125 -6.875 5.875 C-8 8 -8 8 -10 10 C-10.99 10 -11.98 10 -13 10 C-11.71792641 7.13998967 -10.50848764 4.92960588 -8 3 C-6.68 3 -5.36 3 -4 3 C-4 2.34 -4 1.68 -4 1 C-2 0 -2 0 0 0 Z " fill="#AD6CB6" transform="translate(232,121)"/>
<path d="M0 0 C4.875 1.75 4.875 1.75 6 4 C3.03 3.505 3.03 3.505 0 3 C0 3.66 0 4.32 0 5 C1.32 5.33 2.64 5.66 4 6 C3.67 6.99 3.34 7.98 3 9 C1.35 7.68 -0.3 6.36 -2 5 C-1.125 1.125 -1.125 1.125 0 0 Z " fill="#130E3B" transform="translate(160,248)"/>
<path d="M0 0 C5.59282842 1.36410449 8.91193811 4.15383526 13 8 C10 9 10 9 7 8 C7 7.01 7 6.02 7 5 C6.01 5 5.02 5 4 5 C3.67 4.34 3.34 3.68 3 3 C2.01 2.67 1.02 2.34 0 2 C0 1.34 0 0.68 0 0 Z " fill="#9A7796" transform="translate(186,139)"/>
<path d="M0 0 C0.33 1.32 0.66 2.64 1 4 C1.99 4 2.98 4 4 4 C4 4.66 4 5.32 4 6 C4.66 6.33 5.32 6.66 6 7 C5.34 7.66 4.68 8.32 4 9 C1.875 8.625 1.875 8.625 0 8 C-0.79953138 4.71303767 -1.09658936 3.28976808 0 0 Z " fill="#0E2805" transform="translate(457,254)"/>
<path d="M0 0 C0.66 1.32 1.32 2.64 2 4 C1.175 4.433125 0.35 4.86625 -0.5 5.3125 C-1.7375 6.1478125 -1.7375 6.1478125 -3 7 C-3 7.99 -3 8.98 -3 10 C-4.32 9.67 -5.64 9.34 -7 9 C-4.69 6.03 -2.38 3.06 0 0 Z " fill="#A068A9" transform="translate(267,242)"/>
<path d="M0 0 C-1.65 0.33 -3.3 0.66 -5 1 C-5 1.66 -5 2.32 -5 3 C-5.66 3 -6.32 3 -7 3 C-7.33 3.66 -7.66 4.32 -8 5 C-8 4.34 -8 3.68 -8 3 C-8.5775 3.350625 -9.155 3.70125 -9.75 4.0625 C-12.39786506 5.16577711 -13.33185326 4.80156509 -16 4 C-14.08959948 3.1319092 -12.17139263 2.28098217 -10.25 1.4375 C-9.18265625 0.96183594 -8.1153125 0.48617187 -7.015625 -0.00390625 C-4.01630163 -0.9946154 -2.86578759 -1.16161779 0 0 Z " fill="#536119" transform="translate(320,224)"/>
<path d="M0 0 C0.33 0.66 0.66 1.32 1 2 C-0.21484375 4.8203125 -0.21484375 4.8203125 -1.9375 8.125 C-2.50339844 9.22070312 -3.06929688 10.31640625 -3.65234375 11.4453125 C-4.09707031 12.28835937 -4.54179687 13.13140625 -5 14 C-6.24546405 11.50907189 -5.7767578 10.58919267 -5 8 C-4.34 8 -3.68 8 -3 8 C-3 5.69 -3 3.38 -3 1 C-2.01 0.67 -1.02 0.34 0 0 Z " fill="#BF8483" transform="translate(306,216)"/>
<path d="M0 0 C0.763125 0.20625 1.52625 0.4125 2.3125 0.625 C1.9825 1.945 1.6525 3.265 1.3125 4.625 C-0.3375 4.625 -1.9875 4.625 -3.6875 4.625 C-3.6875 3.965 -3.6875 3.305 -3.6875 2.625 C-4.3475 2.295 -5.0075 1.965 -5.6875 1.625 C-2.6875 -0.375 -2.6875 -0.375 0 0 Z " fill="#020300" transform="translate(457.6875,249.375)"/>
<path d="M0 0 C0.33 0 0.66 0 1 0 C1 2.31 1 4.62 1 7 C-0.65 7 -2.3 7 -4 7 C-4.33 5.35 -4.66 3.7 -5 2 C-4.01 2.33 -3.02 2.66 -2 3 C-1.34 2.01 -0.68 1.02 0 0 Z " fill="#A27FA5" transform="translate(204,146)"/>
<path d="M0 0 C-1.40751221 0.86916887 -2.8264521 1.71985149 -4.25 2.5625 C-5.03890625 3.03816406 -5.8278125 3.51382812 -6.640625 4.00390625 C-9.30844625 5.13022151 -10.34501768 5.0169313 -13 4 C-11.59248779 3.13083113 -10.1735479 2.28014851 -8.75 1.4375 C-7.96109375 0.96183594 -7.1721875 0.48617188 -6.359375 -0.00390625 C-3.69155375 -1.13022151 -2.65498232 -1.0169313 0 0 Z " fill="#39531D" transform="translate(433,315)"/>
<path d="M0 0 C7.38461538 0.49230769 7.38461538 0.49230769 10.5 3.0625 C10.995 3.701875 11.49 4.34125 12 5 C7.25081338 4.53439347 3.89217595 3.83067342 0 1 C0 0.67 0 0.34 0 0 Z " fill="#98789A" transform="translate(209,308)"/>
<path d="M0 0 C1.32 1.32 2.64 2.64 4 4 C3.67 4.66 3.34 5.32 3 6 C4.32 6.33 5.64 6.66 7 7 C6.01 7.33 5.02 7.66 4 8 C3.67 8.66 3.34 9.32 3 10 C0.64551835 7.44931155 0.01672076 6.28982642 -0.1875 2.75 C-0.125625 1.8425 -0.06375 0.935 0 0 Z " fill="#7D6EE4" transform="translate(158,254)"/>
<path d="M0 0 C1.43088528 2.86177057 0.59991697 4.93375773 0 8 C-0.99 8 -1.98 8 -3 8 C-3.33 8.99 -3.66 9.98 -4 11 C-4.36630156 7.06225823 -4.30233203 5.43460229 -2 2.125 C-1.34 1.42375 -0.68 0.7225 0 0 Z " fill="#7D799E" transform="translate(111,149)"/>
<path d="M0 0 C0.99 0.33 1.98 0.66 3 1 C3 2.98 3 4.96 3 7 C1.35 6.67 -0.3 6.34 -2 6 C-1.34 5.67 -0.68 5.34 0 5 C0 4.34 0 3.68 0 3 C-0.66 2.67 -1.32 2.34 -2 2 C-1.34 1.34 -0.68 0.68 0 0 Z " fill="#7B6EE5" transform="translate(154,249)"/>
<path d="M0 0 C0.66 0.33 1.32 0.66 2 1 C-0.31 3.31 -2.62 5.62 -5 8 C-5.66 7.34 -6.32 6.68 -7 6 C-5.01180815 3.01771223 -3.42353587 1.21480305 0 0 Z " fill="#AE8F6C" transform="translate(262,281)"/>
<path d="M0 0 C0.66 0 1.32 0 2 0 C2.33 0.99 2.66 1.98 3 3 C3.66 3 4.32 3 5 3 C5.33 5.31 5.66 7.62 6 10 C4.5 8.625 4.5 8.625 3 7 C3 6.34 3 5.68 3 5 C2.34 5 1.68 5 1 5 C0.67 3.35 0.34 1.7 0 0 Z " fill="#666ADF" transform="translate(113,228)"/>
<path d="M0 0 C2.86453858 3.41016497 4.34703566 6.90694544 6 11 C5.01 11 4.02 11 3 11 C0.84694043 7.14243493 -0.39253254 4.44870215 0 0 Z " fill="#676B9F" transform="translate(106,217)"/>
<path d="M0 0 C-0.639375 0.28875 -1.27875 0.5775 -1.9375 0.875 C-4.15206079 1.82823451 -4.15206079 1.82823451 -5 4 C-7.32156597 4.40729228 -9.6568787 4.74438677 -12 5 C-12.33 4.34 -12.66 3.68 -13 3 C-8.37802694 0.78145293 -5.23175837 -0.38281159 0 0 Z " fill="#7C68D1" transform="translate(146,132)"/>
<path d="M0 0 C0.33 0.66 0.66 1.32 1 2 C-0.32 2 -1.64 2 -3 2 C-3.33 2.66 -3.66 3.32 -4 4 C-4.33 3.67 -4.66 3.34 -5 3 C-7.32817964 2.63239269 -9.6618385 2.29758419 -12 2 C-12 1.67 -12 1.34 -12 1 C-7.9472484 0.01751476 -4.16138263 -0.08159574 0 0 Z " fill="#BF6BBA" transform="translate(259,115)"/>
<path d="M0 0 C1.65 0 3.3 0 5 0 C5 0.66 5 1.32 5 2 C5.66 2 6.32 2 7 2 C7 2.99 7 3.98 7 5 C4.0625 4.1875 4.0625 4.1875 1 3 C0.67 2.01 0.34 1.02 0 0 Z " fill="#918093" transform="translate(187,295)"/>
<path d="M0 0 C1.32 0.66 2.64 1.32 4 2 C3.34 3.65 2.68 5.3 2 7 C-0.475 6.01 -0.475 6.01 -3 5 C-1.68 4.34 -0.36 3.68 1 3 C0.67 2.01 0.34 1.02 0 0 Z " fill="#14102F" transform="translate(179,260)"/>
<path d="M0 0 C2.475 0.99 2.475 0.99 5 2 C5 3.32 5 4.64 5 6 C4.01 6 3.02 6 2 6 C1.34 4.02 0.68 2.04 0 0 Z " fill="#BF71CC" transform="translate(272,256)"/>
<path d="M0 0 C0.66 0 1.32 0 2 0 C1.87431641 1.04800781 1.87431641 1.04800781 1.74609375 2.1171875 C1.64425781 3.02726563 1.54242188 3.93734375 1.4375 4.875 C1.33308594 5.77992188 1.22867188 6.68484375 1.12109375 7.6171875 C0.80325148 10.01653057 0.80325148 10.01653057 2 12 C1.01 12.33 0.02 12.66 -1 13 C-1.0272415 11.58344207 -1.04650467 10.16672955 -1.0625 8.75 C-1.07410156 7.96109375 -1.08570312 7.1721875 -1.09765625 6.359375 C-1.00385306 4.09308998 -0.63241063 2.1711105 0 0 Z " fill="#616EF1" transform="translate(102,172)"/>
<path d="M0 0 C0.33 0 0.66 0 1 0 C0.67 2.64 0.34 5.28 0 8 C-0.66 8 -1.32 8 -2 8 C-2.66 6.68 -3.32 5.36 -4 4 C-2.68 3.34 -1.36 2.68 0 2 C0 1.34 0 0.68 0 0 Z " fill="#27320F" transform="translate(354,282)"/>
<path d="M0 0 C-3.60957611 3.2910841 -6.12637153 4.54663921 -11 5 C-11 4.34 -11 3.68 -11 3 C-9.35 3 -7.7 3 -6 3 C-6 2.01 -6 1.02 -6 0 C-3 -1 -3 -1 0 0 Z " fill="#200F2E" transform="translate(245,266)"/>
<path d="M0 0 C0.66 0.33 1.32 0.66 2 1 C1.67 1.99 1.34 2.98 1 4 C-0.65 4.33 -2.3 4.66 -4 5 C-4 5.66 -4 6.32 -4 7 C-4.66 7 -5.32 7 -6 7 C-5.67 6.01 -5.34 5.02 -5 4 C-4.34 4 -3.68 4 -3 4 C-2.67 3.01 -2.34 2.02 -2 1 C-1.34 0.67 -0.68 0.34 0 0 Z " fill="#040104" transform="translate(243,261)"/>
<path d="M0 0 C2 2 2 2 2 5 C1.34 5 0.68 5 0 5 C0 3.35 0 1.7 0 0 Z M-5 5 C-2.525 5.99 -2.525 5.99 0 7 C-0.66 8.32 -1.32 9.64 -2 11 C-2.99 9.02 -3.98 7.04 -5 5 Z " fill="#3F4C0D" transform="translate(307,245)"/>
<path d="M0 0 C2.97 0.495 2.97 0.495 6 1 C6.33 2.65 6.66 4.3 7 6 C6.34 5.67 5.68 5.34 5 5 C5 4.01 5 3.02 5 2 C3.02 2.66 1.04 3.32 -1 4 C-0.67 2.68 -0.34 1.36 0 0 Z " fill="#27580E" transform="translate(395,227)"/>
<path d="M0 0 C0.66 0.33 1.32 0.66 2 1 C2 1.66 2 2.32 2 3 C-2.47058824 7 -2.47058824 7 -5 7 C-3.75023244 3.34683329 -3.32901247 2.21934164 0 0 Z " fill="#A170AE" transform="translate(210,139)"/>
<path d="M0 0 C2.01822917 0.06510417 4.03645833 0.13020833 6.0546875 0.1953125 C5.7246875 1.1853125 5.3946875 2.1753125 5.0546875 3.1953125 C2.0846875 2.8653125 -0.8853125 2.5353125 -3.9453125 2.1953125 C-1.9453125 0.1953125 -1.9453125 0.1953125 0 0 Z " fill="#986CD5" transform="translate(212.9453125,305.8046875)"/>
<path d="M0 0 C0 0.66 0 1.32 0 2 C0.66 2.33 1.32 2.66 2 3 C2 3.66 2 4.32 2 5 C-1.45925163 3.7508258 -4.14693203 2.32472205 -7 0 C-2.25 -1.125 -2.25 -1.125 0 0 Z " fill="#7764B8" transform="translate(184,258)"/>
<path d="M0 0 C2.97 1.98 2.97 1.98 6 4 C5.67 4.66 5.34 5.32 5 6 C3.68 6 2.36 6 1 6 C0.67 4.02 0.34 2.04 0 0 Z " fill="#02010C" transform="translate(167,254)"/>
<path d="M0 0 C0.66 0.33 1.32 0.66 2 1 C2 2.32 2 3.64 2 5 C0.35 4.67 -1.3 4.34 -3 4 C-3 3.01 -3 2.02 -3 1 C-2.01 0.67 -1.02 0.34 0 0 Z " fill="#6D6DEC" transform="translate(134,248)"/>
<path d="M0 0 C0.66 0 1.32 0 2 0 C1.67 2.97 1.34 5.94 1 9 C0.34 9 -0.32 9 -1 9 C-1 7.68 -1 6.36 -1 5 C-1.66 4.34 -2.32 3.68 -3 3 C-2.34 3 -1.68 3 -1 3 C-0.67 2.01 -0.34 1.02 0 0 Z " fill="#B56AB6" transform="translate(278,216)"/>
<path d="M0 0 C2.475 0.99 2.475 0.99 5 2 C4.01 2.495 4.01 2.495 3 3 C1.86649466 5.01669827 1.86649466 5.01669827 1 7 C0.67 7 0.34 7 0 7 C0 4.69 0 2.38 0 0 Z " fill="#010402" transform="translate(348,269)"/>
<path d="M0 0 C1.45922693 0.11409593 2.91740598 0.24165544 4.375 0.375 C5.59316406 0.47941406 5.59316406 0.47941406 6.8359375 0.5859375 C9 1 9 1 11 3 C8.36 3 5.72 3 3 3 C3 2.34 3 1.68 3 1 C2.01 0.67 1.02 0.34 0 0 Z " fill="#8769BC" transform="translate(199,266)"/>
<path d="M0 0 C-3.51187196 2.40814077 -5.72656908 3.36629408 -10 3 C-7.30922307 -0.25725628 -4.0224365 -2.01121825 0 0 Z " fill="#BE6EC5" transform="translate(246,118)"/>
<path d="M0 0 C-4.43076923 3.07692308 -4.43076923 3.07692308 -7.3125 2.6875 C-8.1478125 2.3471875 -8.1478125 2.3471875 -9 2 C-3.375 -1.125 -3.375 -1.125 0 0 Z " fill="#002700" transform="translate(424,290)"/>
<path d="M0 0 C4.95 0.99 4.95 0.99 10 2 C10 2.33 10 2.66 10 3 C8.72125 3.061875 7.4425 3.12375 6.125 3.1875 C5.40570313 3.22230469 4.68640625 3.25710938 3.9453125 3.29296875 C3.30335938 3.19628906 2.66140625 3.09960938 2 3 C1.34 2.01 0.68 1.02 0 0 Z " fill="#7B69BA" transform="translate(182,269)"/>
<path d="M0 0 C1.32 0 2.64 0 4 0 C3.34 1.65 2.68 3.3 2 5 C1.01 4.67 0.02 4.34 -1 4 C-0.67 2.68 -0.34 1.36 0 0 Z " fill="#0A0209" transform="translate(272,221)"/>
<path d="M0 0 C0.99 0.33 1.98 0.66 3 1 C2.34 2.32 1.68 3.64 1 5 C0.01 4.67 -0.98 4.34 -2 4 C-1.34 2.68 -0.68 1.36 0 0 Z " fill="#716AE5" transform="translate(117,145)"/>
</svg>
